/* XPM */
static char *c84f24f4ca074f62b01bf033e66cbea5AR7k00bSYkD7xmuU[] = {
/* columns rows colors chars-per-pixel */
"50 50 256 2 ",
"   c #1B034F",
".  c #1B0351",
"X  c #240454",
"o  c #33065B",
"O  c #3B065D",
"+  c #3A085A",
"@  c #241567",
"#  c #43065E",
"$  c #48095B",
"%  c #560D5E",
"&  c #5C135A",
"*  c #77175B",
"=  c #6E0F5C",
"-  c #792756",
";  c #74304D",
":  c #450661",
">  c #4C0662",
",  c #4D0964",
"<  c #530664",
"1  c #5B0665",
"2  c #540864",
"3  c #5C0965",
"4  c #5D0769",
"5  c #5E136E",
"6  c #4B196B",
"7  c #640666",
"8  c #640669",
"9  c #6C066A",
"0  c #640969",
"q  c #6C096B",
"w  c #670965",
"e  c #74066C",
"r  c #7B066E",
"t  c #73096C",
"y  c #7B096D",
"u  c #750965",
"i  c #62136E",
"p  c #7C0971",
"a  c #7B0873",
"s  c #710F6E",
"d  c #482E6C",
"f  c #612563",
"g  c #667D46",
"h  c #797D40",
"j  c #5E5866",
"k  c #AF3C3D",
"l  c #B65938",
"z  c #B45039",
"x  c #9B6C39",
"c  c #F35C31",
"v  c #D27130",
"b  c #EE7430",
"n  c #D86529",
"m  c #8D1B5A",
"M  c #B7145D",
"N  c #8F2C50",
"B  c #A53347",
"V  c #B23053",
"C  c #840A6E",
"Z  c #8A096B",
"A  c #86076C",
"S  c #950A6E",
"D  c #8B1468",
"F  c #98156A",
"G  c #840771",
"H  c #8C0673",
"J  c #830973",
"K  c #8D0A73",
"L  c #87087C",
"P  c #940673",
"I  c #9A0675",
"U  c #930B73",
"Y  c #9C0A74",
"T  c #9E067A",
"R  c #98087A",
"E  c #961172",
"W  c #8A137A",
"Q  c #A8196B",
"!  c #B81A6B",
"~  c #A20A75",
"^  c #AB067B",
"/  c #AB097A",
"(  c #A70776",
")  c #B3067C",
"_  c #BB067B",
"`  c #B2097B",
"'  c #BA0876",
"]  c #AB1675",
"[  c #B61675",
"{  c #B00A6C",
"}  c #8B2866",
"|  c #AD2D65",
" . c #CE355A",
".. c #F23856",
"X. c #EB3757",
"o. c #C9156B",
"O. c #C30C7B",
"+. c #C8087B",
"@. c #D6087B",
"#. c #C51576",
"$. c #D8177A",
"%. c #D10F68",
"&. c #EA156C",
"*. c #E7097B",
"=. c #F6087D",
"-. c #E9157B",
";. c #F71879",
":. c #F31A68",
">. c #D02A6D",
",. c #F63669",
"<. c #F6287A",
"1. c #ED3478",
"2. c #F63876",
"3. c #EB2C71",
"4. c #CD0A5F",
"5. c #954448",
"6. c #B94445",
"7. c #B15747",
"8. c #AA5364",
"9. c #CF4B47",
"0. c #EF5055",
"q. c #D36E48",
"w. c #F66758",
"e. c #F67857",
"r. c #ED6E4C",
"t. c #F94A6A",
"y. c #F75968",
"u. c #F64677",
"i. c #F75775",
"p. c #E3506C",
"a. c #F66869",
"s. c #F67B64",
"d. c #F56A76",
"f. c #E96E69",
"g. c #DF4C66",
"h. c #77863E",
"j. c #6B8349",
"k. c #4D9C6E",
"l. c #74AE75",
"z. c #61905A",
"x. c #6AC17D",
"c. c #8A9039",
"v. c #B2912D",
"b. c #A5A932",
"n. c #82BA3F",
"m. c #F09113",
"M. c #D1B11C",
"N. c #FAB707",
"B. c #EFB10F",
"V. c #CB8B37",
"C. c #F6943A",
"Z. c #F2912B",
"A. c #F4B032",
"S. c #D29A24",
"D. c #AEEA2B",
"F. c #A0D82E",
"G. c #F9C607",
"H. c #FDD501",
"J. c #FDDA01",
"K. c #F7D909",
"L. c #EDC811",
"P. c #FAEB05",
"I. c #FCF501",
"U. c #FAF807",
"Y. c #EEED16",
"T. c #F9C838",
"R. c #F6D62F",
"E. c #F9E933",
"W. c #FBEE2D",
"Q. c #C1C928",
"!. c #A68F4D",
"~. c #F58545",
"^. c #F78859",
"/. c #F79858",
"(. c #F39449",
"). c #D7AF46",
"_. c #F8A448",
"`. c #F7B658",
"'. c #F5AF4D",
"]. c #F68B69",
"[. c #CF9F59",
"{. c #A2D668",
"}. c #F9C749",
"|. c #F8DB45",
" X c #F7D65B",
".X c #F2C553",
"XX c #FBE647",
"oX c #F7F24E",
"OX c #F6D16A",
"+X c #FBF669",
"@X c #F8EF74",
"#X c #D7F056",
"$X c #0E288D",
"%X c #2C2B91",
"&X c #790898",
"*X c #7B07A8",
"=X c #267B9F",
"-X c #635D92",
";X c #1174C7",
":X c #94098A",
">X c #B80883",
",X c #AE0C89",
"<X c #8C08AA",
"1X c #A8169D",
"2X c #CA0681",
"3X c #C20981",
"4X c #CC0983",
"5X c #C40885",
"6X c #D30583",
"7X c #DD0A84",
"8X c #D90986",
"9X c #D81683",
"0X c #DA0A92",
"qX c #C80E8D",
"wX c #EB0684",
"eX c #E30C85",
"rX c #E70887",
"tX c #F40986",
"yX c #EA1485",
"uX c #F51885",
"iX c #EF0C93",
"pX c #D02B84",
"aX c #F42883",
"sX c #EF3686",
"dX c #F125A9",
"fX c #F0538D",
"gX c #F26696",
"hX c #EF6B8E",
"jX c #F255B0",
"kX c #AF09CB",
"lX c #D013D5",
"zX c #EF2ED5",
"xX c #F853D0",
"cX c #F76EC9",
"vX c #38A598",
"bX c #2CC399",
"nX c #2ACCB4",
"mX c #1ED5B9",
"MX c #74E593",
"NX c #0CA2CF",
"BX c #32F3D7",
"VX c #0EE9E7",
"CX c #14E2D3",
"ZX c #7AEDC7",
"AX c #509B94",
"SX c #F69190",
"DX c #F6B18B",
"FX c #F88BBA",
"GX c #F9B7B9",
"HX c #9BCCA1",
"JX c #F9F08B",
"KX c #F6F5B1",
"LX c #E5D89B",
"PX c #FDFCC7",
"IX c #FDFBE9",
"UX c #DAE3C4",
/* pixels */
"O O O O $ 7 u +.P r p P t r H H ( ' ' +._ ) 0X6X0.r.7X7X` _ O._ ` ' P H G r H y r I +.u w # O O O O ",
"O O O # $ < u Z +.U J U H r I K ( +.+.@.+.+.0XrX0.r.rXeX_ +.@.+.O.' I I J H U G P ' Z u < : O O O O ",
"O O # # $ > 3 y ~ _ U U Y H U ~ ( @.@.@.@.7XrXwXw.r.tXeX2X@.*.@.@._ ^ U P ~ P U ' Y C 1 > # # O O O ",
"# # # : > < < 8 Z _ ` R ( ~ R ^ / @.*.*.rXrXrXtXr.r.tXyX7X7XwXrX*._ ) Y / ( T _ O.Z w < > $ # # # # ",
"N % > > < 2 1 8 y Y @._ / ' ~ / _ +.=.=.wXwXrXuX~.~.uXyXwXwX=.=.*.5X) / O.` _ @.E y 1 < < > : $ & B ",
"N N = < < 1 1 0 t Z ( @.3X#.#.) 2X2X=.=.=.tXtXuXw.(.<.uXwXtXtX=.rX2X>XO.O.+.7X] } t 3 1 2 < < * k k ",
"% m B * 4 4 0 9 t G ~ ' 7X2X9XO.6X6XwX=.;.tXtXaXw.(.2.uXtX;.=.tX8X>.$.$.6XeX#.| C e 8 7 4 8 N z N & ",
"< 1 m k N w q q t J U ' 9X7X6X-.6XrXwX=.<.tXaXu.s./.u.uXtX,.=.tXrX1.<.rXyXpX' U G e 9 9 t B z m 3 < ",
"> < 7 * B B D a p J P ^ #.sXyXyXyXiXtX=.<.;.uXu.^._.i.aXuX,.<.tXiXyXuXyXfX$.` I H p a D 6.6.* 1 2 > ",
"> < 1 9 C V 9.F L U R ^ 3XyXgXuX<.tXiX;.,.t.2.y./.`.s.u.2.t.2.tXiX<.uXgXaX+.^ T R P Q 9.V C w 1 < > ",
", < 1 7 t H Q n | T / ) 3X7X1.gXaXaXuX2.t.e.y.s.`..X/.y.e.y.t.aXaX2.gXsXeX5X) >X^ ! b | Z e 3 1 < $ ",
"* 3 1 8 q p P [ 9. .>X5X4XrXuXfXfXy.aXu.w.C.w./.`. X_.e.C.e.i.2.a.fXhX<.7X4X2X3X .q.! P r 9 8 1 & - ",
"B N * w t p H ( #.0.r.9X8XrXuXu.SXd.a.y.e.C.(.'..X XT._.A._.a.s.d.SXu.yXeXeX$.r.0.#.( H r q q N k z ",
"= N B B D J H T ) @.,.~.1.yXuX<.d.DX^.^.`.OXOXOX@XJX X X|.`./.^.DXd.2.uXuX2.~.X.@.) T J C m V 6.B * ",
"u 9 u m V M ~ ~ ) 3XeXf.'.e.w.w.a..XR.XXIXIXJXP.P.K.K.K.K.b.j.l.HXf.w.w.e.A.q.eX3X` ~ ]  . .V u e 9 ",
"7 e G Z E  .9. .#.4X8XE.L.B.B.B.l L.B.T.JX XP.K.K.G.B.B.B.x j =XNX8.B.B.B.L.D.4X4X>.9.q.9.E H G e 7 ",
"9 q e G I ( o. .r.0.-.E.v V 6.b 5.L.I.W.PXKXI.I.I.J.J.J.J.c.j.vXCX5.v V V v D.>.0.r.g.o.^ I G t q 9 ",
"r H P H H ~ _ @.*.,.C.E.V.p.w.Z.5.Y.I.W.PXU.I.I.I.J.J.J.J.c.j.bXVX5.S.a.g.v D.C.,.-.@._ ~ H K H G e ",
"8 w G T ^ ` _ +.rXwX=.A.V.~.(.9.N Y.I.Y.PXU.I.I.I.J.J.J.H.c.g mXVXN q.^.r.v.F.tX=.*.2X_ ) ^ P e 7 3 ",
"u w 9 y H ~ _ 6XrXtXtXw.A.q.A.'.).Y.I.U.PXW.I.I.I.J.J.J.H.h.j.mXBX[.'.A.q.M.!.uXtXrX+._ ~ H p e t y ",
"4.4.M { Y T / _ 6XwXtX,.B.z w._.R.Y.U.I.KXoXI.I.I.J.J.H.H.j.j.CXMXR._.w.7.Q.p.tXwX6X3X) ( { 4.4.4.M ",
"w t S { %.&.:.&.-.*.=.tXr.m.8.`.}.W.U.I.@X+XI.I.I.J.H.H.L.j.z.CX{.'./.V B.q.tX=.-.&.:.&.%.o.Y C e 9 ",
"&X&X:X:X,X,XqX0XyX;.3.,.0.b n S.|.E.U.W.W.E.I.I.P.H.H.H.M.g k.VX#XT.[.v b t.,.2.uXiX0XqX,X1X<X<X<X&X",
"*X<X<XkXkXlXlXzXzXxXxXcXFXSXb v .XE.Y.oXP.J.J.J.H.N.N.N.v.j.bXBXoX).v b SXFXcXxXxXzXzXlXlXkXkX<X<X&X",
"a a L :X:X,XqX0XdXdXjXcXFXGXDXc 7.LX@XD.G.G.G.G.G.B.B.B.c.z.mXZXLXl c SXFXcXjXdXdXiX0X>X,X:X:XL a t ",
"a a L R :X,X5X8XyXyXaXsXi.s.'._.c 6.[.F.B.N.N.N.N.m.m.S.g k.CX{.z c _./.s.i.sXuXyXeX4X>X,XR L L a t ",
"p C E ] ! >.$.3.2.2.t.y.s./.'.}.'.b 6.c.F.m.m.B.B.m.m.x g nXAXz b `.`._./.^.a.y.u.1.3. .>.#.] E U C ",
"F F Q ] [ #.$.eXtXuX<.t.s.'.'.}.|.XXr.9.n.b.n m.m.b n ; vXnX7.q.oXXX}.`.e.i.2.uXuX-.-.$.o.! ! Q Q Q ",
"t J K I ^ O.$.3.,.,.2.2.2.i.].}.W.W.}.8.KX{.v.b m.n z AXBXUXq.).oX|.'.].a.u.2.u.2.<.yX2X_ ( U H G r ",
"C E ] ! o.>.$.8X7XrXtX<.y.C.A.A.A.}.XXJXKXJX{.v.v l j ZXJXKXJXXX}.T.R._.y.<.uXtXrXeX$.$.$.O./ Y G r ",
"E E U U R ~ / >X7X-.;.,.t.0.w.e._.|.JX@XoX@XOXq.v z j HX+XoX@X+X|.'.^.e.e.0.<.=.8X2X>X) / ( ~ ~ Y Y ",
"q t t J L T +.*.=.=.=.;.,.<.u.s.`.JX XXXXX+X+X).b 5.l.@X+XXXXX X@X`.a.2.2.,.;.=.=.$.O.T K L J p y e ",
"4 0 q S ' %.@.@.*.=.:.-.wXuXy.s.DX`.`.}.XXoXoX#X|.x MXoXoXXX}.}..XDXs.u.uXtX;.=.&.C.3.@.` Z t 9 8 4 ",
"y S { { ( ( ' %.&.&.7XwXuX2.d.SX]././.T.E.E.E.oXR.V.x.#XE.E.}././.].SXi.<.tXrX*.*.&.@.' ' ' ( H e 8 ",
"H A C G S ! >.[ ' +.7X-.aXhXhXd.i.a._.R.W.A.Z..XA.m.x z.b.W.R._.a.a.d.hXfXuXyX6X+.' o.o.{ S S S S P ",
"9 9 u |  .F U ( ^ +.@.yXgXsX1.aXu.^.T.R.Z.A. XXXL.G.M.h.bXl.R.T.a.2.2.aXgXfXyX$._ ^ Y S V V y e e e ",
"* N 6.m 9 G P I ' +.9XgXpXyXyXuXt.(.A.Z._. XL.L.L.B.M.h k.bX{.A.(.u.uXaXyXfXfX9X+./ R H r D V B * w ",
"N - w 8 t C P ( ` pXpX9X7X8XrX<.t.| } } } } N N - - - f d d j -X-Xy.aXrXeX8XpXsX#.( ~ H y t 7 * N - ",
"< < 7 8 t Z U U pXpX` O.3X6XyX1.<.7 # ; l l l l l l l l z N d $X%X2.,.rX4X4X_ ] pX[ U S y w 8 1 3 % ",
"< < 2 q t y K #.] R ,X/ >X8X<.uXyX3 O ; 0...........X.>.E D 6 $X%XuX<.-.2X>X` ( U >X] C C e 7 1 < > ",
"> < 1 8 e E [ U J | U T ) $.$.rXrX1 # ; 0.......X. .Q E U D 6 $X%XeXeX@.@./ U R U J ] ] y q 8 1 > > ",
"> < 2 w D E p t J y G T O.O.2X+.6X1 : ; 0.X.X. .Q U U K W K 6 $X%X@.2X+.O._ R L J y s C Y t 1 < > # ",
": > w D Z 0 * } q e G ` ` ` / ) _ 1 # + $ $ $ # O O + + + + @ $X%X) _ / ^ ` I p t u N 4 q Z e < $ # ",
"> = m = 2 & 5.w 8 e I ( U Y ( Y ,XW s i i i i i i 5 5 5 5 5 5 %X;X-XW T U K ( G w 0 ; * 4 1 t q > O ",
"= * % : & ; 2 1 8 G Y G C p e y w , , , , > , , , , , , , , , 6 NX;X5 t y p p I e 1 < 3 - % : 7 7 < ",
"= $ # : $ % < 2 t H q 7 : : O O o X X X X X X X X X X X X X X X @ @ o O # : 1 w G 3 > > % , # # < 7 ",
"O O O # : : > 1 Z 7 4 : o + o o o . .   .     . . . . . . . .   . . . o o O : < w e > : # # O O O # ",
"O O O O # : < u 7 < $ o o o o o + o . . .   . . .   . . .       . . . X o o o : > w 8 : O O O O O O ",
"O O O O O : u 7 > : O o o o o o + o X . .   . . . . .   . . . . . . . . X o o o : > w 3 # O O O + O ",
"O O O O : w 7 : : O o + o o o o o o o X . . . . . . .   . . . . . . . . X o o o O : : w 2 O O O O O "
};
