/* XPM */
static char *image__1_1738074944[] = {
/* columns rows colors chars-per-pixel */
"50 50 186 2 ",
"   c #5D5950",
".  c #635D54",
"X  c #655E58",
"o  c #666055",
"O  c #676358",
"+  c #6A665A",
"@  c #6D695D",
"#  c #685C76",
"$  c #6D6762",
"%  c #797469",
"&  c #7F7870",
"*  c #BD705B",
"=  c #BC795C",
"-  c #927E67",
";  c #827D72",
":  c #BB7763",
">  c #FD862E",
",  c #FE882E",
"<  c #FD982E",
"1  c #ED8635",
"2  c #F68637",
"3  c #FA8934",
"4  c #FA8A35",
"5  c #F48D3C",
"6  c #FB9633",
"7  c #F89B3B",
"8  c #FBA432",
"9  c #FDAA34",
"0  c #F7A53B",
"q  c #F9A73C",
"w  c #F6A93F",
"e  c #FCAC3A",
"r  c #FBB23E",
"t  c #BD835D",
"y  c #868075",
"u  c #898476",
"i  c #8C867A",
"p  c #8E887C",
"a  c #918B7D",
"s  c #BC8560",
"d  c #BA9A6B",
"f  c #BD9A7A",
"g  c #C08F47",
"h  c #DA9357",
"j  c #E39956",
"k  c #D9A24F",
"l  c #DBA454",
"z  c #F3A341",
"x  c #F5AA44",
"c  c #FCAE42",
"v  c #FBB845",
"b  c #E8AC57",
"n  c #F4A850",
"m  c #F9A25C",
"M  c #ECB259",
"N  c #F7BB52",
"B  c #F7BE52",
"V  c #D39060",
"C  c #C89678",
"Z  c #CCAC7E",
"A  c #D5B47D",
"S  c #E1AF67",
"D  c #F9AB66",
"F  c #E2B169",
"G  c #FABC60",
"H  c #FAB279",
"J  c #FBC14E",
"K  c #FAC759",
"L  c #FBCB5B",
"P  c #FCD15F",
"I  c #F9CC69",
"U  c #FCD161",
"Y  c #FCD46C",
"T  c #FDDA6B",
"R  c #FBD975",
"E  c #665495",
"W  c #66509E",
"Q  c #7C6E8F",
"!  c #74609F",
"~  c #6A52A2",
"^  c #7058A7",
"/  c #7157A9",
"(  c #7B5DB5",
")  c #7E5EBA",
"_  c #7C63AE",
"`  c #826F9E",
"'  c #9D6E97",
"]  c #9C6C9A",
"[  c #9E719B",
"{  c #B16D83",
"}  c #AC798D",
"|  c #A27C9D",
" . c #805FB9",
".. c #8D6EA9",
"X. c #9169A4",
"o. c #937FAA",
"O. c #8261BB",
"+. c #906DB7",
"@. c #8C70B5",
"#. c #8E70BF",
"$. c #9375BA",
"%. c #C67DA7",
"&. c #815EC0",
"*. c #8763C6",
"=. c #8A66C6",
"-. c #8F70C0",
";. c #917DC5",
":. c #976BDA",
">. c #A776DA",
",. c #9E71E4",
"<. c #9F71E8",
"1. c #A474EE",
"2. c #AB78EB",
"3. c #A876F3",
"4. c #8C8487",
"5. c #928C81",
"6. c #969184",
"7. c #999386",
"8. c #9B958A",
"9. c #9E998C",
"0. c #A19D8F",
"q. c #B59B81",
"w. c #A08194",
"e. c #A39E92",
"r. c #A5A194",
"t. c #A9A396",
"y. c #A5A098",
"u. c #ABA59A",
"i. c #AEAA9B",
"p. c #B9AC97",
"a. c #B2AD9E",
"s. c #B4B19E",
"d. c #B9B39F",
"f. c #9082A6",
"g. c #9D8CAC",
"h. c #9985B1",
"j. c #A499A4",
"k. c #A494AD",
"l. c #A99DAF",
"z. c #B29FAF",
"x. c #A991B2",
"c. c #ADA6A0",
"v. c #ACA2AB",
"b. c #B3ADA1",
"n. c #B4AAAA",
"m. c #B9ADA8",
"M. c #B6B1A3",
"N. c #BBB5A5",
"B. c #BEB9A6",
"V. c #B7B2AC",
"C. c #BCB6AA",
"Z. c #BEB9AA",
"A. c #AFA6B0",
"S. c #B6AFB9",
"D. c #CF9787",
"F. c #CBAE88",
"G. c #CBB48A",
"H. c #D4B483",
"J. c #C3AF97",
"K. c #CBB193",
"L. c #CAB89D",
"P. c #CA8BA5",
"I. c #C0BBA7",
"U. c #C1BCAA",
"Y. c #C3BDB0",
"T. c #C8B8B8",
"R. c #FBCC86",
"E. c #FBDD82",
"W. c #E8CB98",
"Q. c #C4C0AE",
"!. c #C6C1B1",
"~. c #C9C2B8",
"^. c #FBE3AF",
"/. c #FBEBBB",
"(. c #9F94C5",
"). c #B889C9",
"_. c #C190D8",
"`. c #CCD1CC",
"'. c #CDD1CE",
"]. c #FBE6C7",
"[. c #FCF2CC",
"{. c #FBE5D0",
"}. c #FDEDD6",
"|. c #FCF5E5",
" X c #FEFDF7",
".X c #FEFFFE",
/* pixels */
"e.e.r.0.0.e.e.e.e.e.7.e.e.e.e.e.e.e.e.e.0.r.e.0.e.r.r.r.0.e.e.e.e.e.e.0.e.e.t.t.e.u.e.e.u.0.e.e.t.e.",
"Z.Z.Q.Z.Z.Z.Y.Z.U.I.m.U.C.T.U.U.U.C.Z.Z.B.U.Q.Z.Z.Z.B.B.U.I.U.Y.U.U.U.N.m.Y.U.I.U.U.U.Y.U.I.Y.Y.U.I.",
"B.B.Z.B.I.U.U.U.U.I.b.I.U.I.I.I.Q.I.I.I.B.I.B.B.Z.Q.Q.Q.U.I.U.I.I.I.U.M.B.U.U.U.U.U.U.U.N.I.U.I.U.U.",
"B.B.Q.I.U.U.U.I.U.N.i.C.U.U.U.U.U.I.B.I.Q.Q.B.Q.B.B.B.B.U.U.U.U.U.U.U.N.N.U.U.U.U.U.U.Y.U.I.U.U.U.U.",
"Z.Z.Q.Q.Y.Z.Z.Z.Y.U.b.I.Y.U.U.U.I.Y.Z.U.!.Z.Z.Z.U.U.U.Y.U.I.U.I.I.U.U.C.C.U.U.U.I.U.U.I.U.I.I.I.U.U.",
"V.Z.Z.Z.Z.Z.Z.C.m.b.t.b.b.b.a.a.b.N.b.i.b.G.G.H.Z F.G.G.J.a.b.b.m.b.b.b.c.N.M.m.b.I.I.C.U.Y.U.Y.U.I.",
"y.r.r.r.r.r.r.r.e.e.0.e.e.e.e.0.e.e.6.i a b K q 8 8 B J d 6.7.7.a a 5.i i p u u ; 5.6.5.u e.t.t.e.e.",
"M.Z.B.N.N.Z.Z.Z.I.U.m.U.N.U.U.U.Z.Z.n.u.d.M K 8 8 8 v B H.C.C.C.N.N.U.N.m.U.N.N.m.U.m.a.u C.U.C.m.m.",
"Z.Y.Z.U.B.I.U.U.I.!.Z.I.U.U.U.U.Z.Z.N.M.M.H.n 6 6 6 7 F L.I.I.I.C.U.U.U.U.I.U.U.U.I.M.6.8.C.U.C.U.U.",
"Z.U.U.I.Q.I.I.U.I.U.I.U.U.B.U.I.Z.U.Z.Z.Z.x.%.%.{ { { | n.Z.I.Q.U.U.I.I.I.U.U.U.L.I.Y.N.t.I.I.U.Y.U.",
"N.Z.I.U.Z.I.Q.Z.U.U.Z.I.U.B.U.U.Q.Z.s.M.n.$.1.<. .) ) ) v.U.Q.Z.U.U.U.I.U.U.Q.U.~.Z.u.i.e.T.U.Y.I.I.",
"Y.U.Y.U.Z.Q.I.Z.Y.Y.U.U.U.U.Y.U.Q.Z.N.Z.Z.A._ / ~ ~ ~ o.C.Z.Z.Z.U.U.U.T.I.U.U.I.C.U.C.B.0.M.I.I.U.I.",
"y i p i i i i i u p a a i u 5.u ; % $ @ + $ E ~ W ~ W # O O .   . . . . X X o X X X . X $ 5.7.a a a ",
"C.Z.Q.Z.Z.Z.Z.Z.8.c.m.N.N.b.b.b.M.M.M.Y.Z.V.#.:.( ( _ g.C.C.Z.Z.Y.m.c.e.U.U.U.U.I.I.U.U.U.U.U.I.I.M.",
"Z.Z.Q.U.U.U.U.Z.5.b.Z.C.U.U.U.Y.Q.Q.Z.Y.Z.V.-.,.) ) ) k.Z.U.Z.Y.U.U.u.e.U.Y.I.I.C.U.U.U.U.U.U.Y.U.M.",
"N.B.Z.I.I.I.I.I.5.b.Y.I.U.I.Z.U.B.U.I.U.B.V.-.<.) ) ) k.B.I.U.U.U.U.u.0.U.U.I.U.I.Q.I.Z.U.U.U.U.I.m.",
"C.C.U.U.I.U.I.Z.p N.U.B.I.I.U.U.U.U.U.U.U.v.=.,.O.)  .h.C.I.I.U.Z.Z.i.7.I.I.B.I.I.U.I.I.U.U.I.U.U.a.",
"C.U.U.U.U.U.Y.Y.6.M.Q.U.U.Z.Y.Z.B.Z.U.U.Z.+.=.>.} ] ) ( l.I.U.U.Z.Z.M.e.Y.U.U.U.U.U.U.Y.U.U.U.U.U.a.",
"9.e.0.9.9.7.7.8.% 7.0.9.9.6.7.6.8.8.9.0.e.(.+.D.w j ' ;.v.e.e.e.e.y.9.7.u.t.y.u.t.t.u.t.t.t.t.t.i.9.",
"5.u.u.u.t.t.t.u.t.c.s.s.t.r.i.r.r.u.i.i.S.'.C x J v j T.'.a.a.n.b.s.s.i.M.b.b.b.a.b.a.b.b.a.b.a.i.9.",
"p U.U.I.U.I.U.U.Y.Z.U.U.B.U.U.U.Z.Z.U.U.~.'.N J T U v W.`.U.I.U.Q.U.U.Q.Z.U.Z.U.U.Z.I.I.I.U.I.U.Z.u.",
"p U.U.U.I.U.I.U.Z.B.I.Z.B.Q.U.B.I.I.U.I.U.z.b J T L r D.v.U.I.U.I.I.U.U.I.I.U.U.I.I.U.U.U.I.U.U.Z.u.",
"p U.U.I.I.U.I.U.Q.I.Q.I.Z.Q.Z.Z.I.Z.Q.I.Z.$.P.x v r V X.l.I.I.I.I.I.I.I.B.B.U.Z.I.I.U.U.U.I.U.U.Z.u.",
"5.Y.I.U.U.I.Z.!.U.I.I.B.Z.Q.B.Q.U.U.Z.C.h.=.2.P.z h X.) @.A.U.U.U.U.U.B.Y.U.Q.Z.U.U.U.U.U.U.U.U.Z.r.",
"6.a.N.M.a.a.b.u.r.r.0.0.9.8.6.5.5.5.4.`  .*.1.3.X.X.) ) ) ..j.N.M.M.M.M.M.N.M.s.M.M.M.M.s.C.N.M.M.r.",
"M.Y.Y.U.Y.U.Y.U.Q.Y.Y.Z.Y.Y.Z.Q.Z.M.f.)  .1.1.&.) ) ) ) ) O.@.V.!.!.!.!.Q.!.!.!.Q.Q.Q.Z.V.Q.Q.!.!.Z.",
"N.I.I.I.I.I.U.I.U.Z.U.Z.Z.Q.Q.Z.Y.M... .=.3.1. .) ) ) ) ) ) O.n.U.Z.U.U.U.Z.U.U.U.Q.Z.s.s.Z.I.I.Q.Z.",
"I.I.U.U.U.U.U.U.U.U.U.U.Z.Z.B.B.U.M.| [ )._.).| [ [ [ ] ] ] ] b.I.B.U.Q.U.U.I.U.B.Z.Z.s.s.U.Q.Z.B.B.",
"I.U.U.U.I.I.I.I.Q.U.U.U.U.U.U.U.U.s.l x I R I w 0 8 7 z 2 2 z K.Q.Z.Z.U.Q.U.U.Z.U.Z.Z.s.s.Z.Z.Z.I.Z.",
"I.U.U.I.U.Y.U.Y.Z.Q.Z.U.U.U.U.Y.Y.s.k e U T U 9 8 9 9 6 , > 2 K.Z.Q.Z.Z.Z.Z.Q.Z.U.Q.Z.M.M.Z.!.U.Q.Q.",
"a.a.b.a.b.M.p.M.M.i.i.i.i.i.u.a.i.0.k e U Y Y R.R.R.B 6 > 3 2 D.r.a.s.i.i.s.s.i.i.i.i.r.r.i.i.s.i.i.",
"m.e.a.u.u.e.8.e.y.r.r.r.e.0.0.0.0.9.k e U R /. X.X.X{.D > 4 1 q.6.0.y.r.e.r.r.r.r.r.y.0.e.u.r.t.r.9.",
"U.U.U.I.U.N.i.T.C.U.I.U.I.U.I.U.I.I.M e Y /. X.X.X.X.X{.m > 2 K.0.U.U.U.I.U.U.U.U.U.U.U.U.U.U.U.Q.Z.",
"U.U.I.U.U.N.u.U.U.U.I.U.I.U.I.U.Q.U.b w ^. X.X.X.X.X.X.X{.m 3 K.0.U.I.U.I.U.U.U.U.U.U.I.U.I.U.U.I.U.",
"U.U.U.U.I.m.u.I.U.U.I.U.I.U.I.I.I.A x c }..X.X.X.X.X.X.X.XH > j p.U.I.U.I.I.I.I.U.U.U.I.I.U.U.I.U.B.",
"U.I.I.U.I.I.a.C.U.C.I.U.U.U.U.U.U.F 9 e }..X.X.X.X.X.X.X.XH > 5 J.U.I.I.I.I.I.U.U.I.I.U.U.I.U.U.Z.Q.",
"U.Y.U.Y.U.U.i.m.Z.Z.Z.Z.U.C.U.C.B.S 9 r }..X.X.X.X.X.X.X.XH > 5 J.U.Y.Y.C.Y.I.N.T.U.U.T.U.U.U.U.!.Z.",
"5.5.5.6.5.i ; ; % $     X + o + + t 9 e }..X.X.X.X.X.X.X.XH > 1 - ; p 5.; 0.0.8.8.8.8.8.0.6.7.6.p p ",
"I.T.C.U.Y.Y.U.U.Z.b.y.e.Z.Z.Y.U.Z.F 9 e ]..X.X.X.X.X.X.X|.D > 5 L.Y.N.t.6.N.U.U.U.U.U.U.U.I.U.I.Z.Z.",
"U.U.I.U.N.U.U.U.Y.b.e.e.Z.Q.B.Z.I.F 8 e R [.|..X.X.X|.{.H 4 > 5 K.U.b.t.5.U.Y.I.I.U.U.I.I.U.U.U.Z.Z.",
"C.U.I.I.I.U.U.I.Z.i.e.Z.U.Z.I.I.I.S 8 e U T E./.].].R.7 4 , , 5 K.U.U.m.p I.U.I.I.I.U.U.U.I.U.U.Z.B.",
"C.U.I.I.I.I.U.U.Z.i.9.M.~.U.Q.Z.U.F 9 9 U T U e 9 e 9 < , , , 5 U.U.m.u.5.U.Y.U.U.U.U.U.U.U.U.U.Y.Z.",
"C.C.B.B.I.C.U.I.Z.u.8.9.M.b.Z.N.N.q.t t f F.f t t = s = * * s - p.a.e.8.5.m.U.C.U.U.U.Z.C.U.U.M.U.Z.",
"t.t.t.p.t.u.u.u.y.9.6.6.r.8.0.9.9.4.! / ^ / ~ / ^ ^ / ^ ^ ^ ! Q 5.0.8.5.5.e.e.e.t.e.t.t.8.t.u.t.r.r.",
"C.U.U.U.U.U.U.U.U.U.U.U.U.U.I.U.U.Z.k.g.g.g.g.g.g.g.g.g.g.g.g.V.p.N.I.m.N.N.N.N.N.C.m.U.8.N.U.U.N.N.",
"B.U.U.U.I.U.U.U.U.I.B.I.I.I.I.U.U.U.C.Z.Y.U.U.Q.Q.I.I.I.Z.I.Z.Z.U.U.U.U.U.I.I.U.I.U.U.Y.5.C.U.U.Q.U.",
"C.C.U.U.U.I.U.U.I.I.U.U.U.U.I.B.I.I.M.Z.U.U.I.U.U.U.U.U.Q.I.Z.Q.U.U.I.U.U.U.I.U.U.U.U.Y.p I.U.I.U.I.",
"C.U.U.U.U.I.I.I.U.I.U.U.U.U.U.U.I.I.B.B.I.B.U.U.I.I.I.U.I.B.Q.Z.U.U.U.U.U.U.U.U.I.B.U.U.a N.I.I.U.U.",
"I.B.Z.U.Z.Z.Z.U.U.U.U.Q.Z.Q.B.Z.Z.Y.s.Z.Y.Z.Z.Y.Y.Z.Q.Z.Q.Z.Q.Z.U.U.Z.Z.U.Q.Z.Q.Y.U.Y.Z.8.N.Y.Q.U.Q.",
"0.0.0.e.r.0.0.r.r.0.r.0.r.0.r.r.0.r.7.0.0.0.0.0.0.0.0.0.0.0.0.0.0.e.0.0.r.9.e.0.0.e.0.0.; 0.r.r.r.0."
};
