/* XPM */
static char *_99f3aaaf60140f8ba23015fc834ba5e[] = {
/* columns rows colors chars-per-pixel */
"40 40 170 2 ",
"   c None",
".  c #120E17",
"X  c #131017",
"o  c #161119",
"O  c #1A151C",
"+  c #1E181D",
"@  c #21171F",
"#  c #21181F",
"$  c #1E1726",
"%  c #1F1926",
"&  c #1F1728",
"*  c #1F1929",
"=  c #201725",
"-  c #231B24",
";  c #291F27",
":  c #201728",
">  c #22192C",
",  c #281F29",
"<  c #261B32",
"1  c #291D36",
"2  c #2B1E39",
"3  c #272026",
"4  c #292027",
"5  c #27202F",
"6  c #2C222A",
"7  c #31262F",
"8  c #272130",
"9  c #2C2234",
"0  c #2D223C",
"q  c #322B36",
"w  c #322B3B",
"e  c #363036",
"r  c #37313E",
"t  c #3B343C",
"y  c #3F383F",
"u  c #56413F",
"i  c #2F2140",
"p  c #312242",
"a  c #3B3542",
"s  c #3F3946",
"d  c #423A44",
"f  c #44374C",
"g  c #443C4B",
"h  c #413447",
"j  c #473A50",
"k  c #4A3C55",
"l  c #454146",
"z  c #47414C",
"x  c #49444C",
"c  c #4E494F",
"v  c #574241",
"b  c #584443",
"n  c #4B4453",
"m  c #4E4A51",
"M  c #4F4759",
"N  c #524E55",
"B  c #50475A",
"V  c #534B5C",
"C  c #565057",
"Z  c #57525D",
"A  c #5A555C",
"S  c #5F5153",
"D  c #635557",
"F  c #7A655C",
"G  c #7D685F",
"H  c #77645A",
"J  c #574E61",
"K  c #594E62",
"L  c #5B5463",
"P  c #5D5962",
"I  c #5E5368",
"U  c #645D65",
"Y  c #635C69",
"T  c #665A6B",
"R  c #675F72",
"E  c #66616B",
"W  c #6A656E",
"Q  c #696167",
"!  c #776866",
"~  c #7E6B61",
"^  c #7A6D6C",
"/  c #71686B",
"(  c #6C6571",
")  c #6E6973",
"_  c #6E6579",
"`  c #716B75",
"'  c #7C6E75",
"]  c #756E7B",
"[  c #72677D",
"{  c #76717B",
"}  c #78737D",
"|  c #816D65",
" . c #846F68",
".. c #86726B",
"X. c #9F7A63",
"o. c #9F7B64",
"O. c #91786D",
"+. c #867877",
"@. c #857778",
"#. c #977E72",
"$. c #A07B65",
"%. c #A17C67",
"&. c #A37E69",
"*. c #A47F6B",
"=. c #9C8375",
"-. c #A5816D",
";. c #A3806B",
":. c #AF896E",
">. c #B0896E",
",. c #A3897B",
"<. c #B18B70",
"1. c #B38D73",
"2. c #B48F75",
"3. c #B69176",
"4. c #B7927A",
"5. c #B8947C",
"6. c #7B7481",
"7. c #7E7984",
"8. c #827584",
"9. c #857D8A",
"0. c #867D84",
"q. c #89838F",
"w. c #84818B",
"e. c #97888A",
"r. c #998A8E",
"t. c #8C8692",
"y. c #8D8A92",
"u. c #918C95",
"i. c #9A8C90",
"p. c #968E9B",
"a. c #97919C",
"s. c #9A919C",
"d. c #9C9096",
"f. c #9D96A2",
"g. c #A39BA5",
"h. c #A59FAA",
"j. c #ABA1A6",
"k. c #A5A2A9",
"l. c #AEA8B2",
"z. c #B3ADB8",
"x. c #BAB3B9",
"c. c #BFB8BE",
"v. c #C1B2AF",
"b. c #CEBDB4",
"n. c #C2BBBF",
"m. c #CABDBB",
"M. c #BFBDC2",
"N. c #C6BFC4",
"B. c #C7C0C5",
"V. c #CBC3C5",
"C. c #CAC7CB",
"Z. c #CAC8CC",
"A. c #D4C9C6",
"S. c #D3CBCC",
"D. c #DACECA",
"F. c #DCD1CD",
"G. c #D0CED1",
"H. c #DED5D3",
"J. c #D6D4D8",
"K. c #E2D2CA",
"L. c #ECDBCE",
"P. c #EFDED2",
"I. c #E2DAD7",
"U. c #EFE0D4",
"Y. c #EAE2DC",
"T. c #F0E6DD",
"R. c #F2E8DF",
"E. c #E9E8E9",
"W. c #F4F3F4",
"Q. c white",
/* pixels */
"                                                                                ",
"                                                                                ",
"                                                                                ",
"                                                                                ",
"                                                                                ",
"              X o X X X . X X o o o o o o o o o o o X X o o o o o               ",
"              O O o o o o o O O O O O O O O O O O O O O O O O + O               ",
"          o O $ = = = + + + + + + + + + + + + @ @ # # = = - - - = $ O           ",
"          % - , 6 6 6 6 3 3 ; ; ; ; ; ; ; ; ; ; ; 3 6 6 6 6 7 7 6 > -           ",
"      $ 9 r y y y y y t r r e e e e q q q e e r r r t y y d d d d d t q $       ",
"    $ $ w m C N N m c c x x l l l l l l l l x x x x c m N N C C A A N r $ $     ",
"    $ $ r N U ! | | | ~ G F F F F H F F F F F G G ~ ~ | |  .....^ / A a $ $     ",
"    $ $ a Z ^ =.4.4.2.2.1.1.<.<.:.:.:.>.>.>.<.1.1.2.3.3.4.5.5.5.,.+.Y d $ $     ",
"    $ $ a P ^ O.-.;.&.&.%.%.$.o.X.X.X.X.X.$.$.%.%.&.&.&.*.-.-.-.#.@.W g $ $     ",
"    $ $ s U Q S b b b b v v v v v u u u u v v v v b b b b b b b D ` ( g $ =     ",
"    $ $ g E P r $ 5 q q q 9 > $ $ $ $ $ $ $ $ $ $ > 9 q q q 5 $ a Y ) z - -     ",
"    & & g W U a 9 L t.u.u.{ g $ $ $ $ $ $ $ $ $ $ g { u.u.t.L 9 a E ) z % %     ",
"    : : z ) Y a r y.E.W.W.M.E $ $ $ $ $ $ $ $ $ $ E M.W.W.E.y.w s E ` z % %     ",
"    : : z ` E a r a.W.Q.Q.Z.W $ $ $ $ $ $ $ $ $ $ W Z.Q.Q.W.a.r s W { n & :     ",
"    > > n ` W a r a.W.Q.Q.Z.W $ $ $ $ $ $ $ $ $ $ W Z.Q.Q.W.a.r s ( { n : :     ",
"    > > n ] W s w 7.C.G.G.k.L $ $ $ $ $ $ $ $ $ $ L k.G.G.Z.7.w s ( } n : :     ",
"    > > M } ( d 8 n ) ` ` P a $ $ $ $ $ $ $ $ $ $ a P ` ` ) n 8 s ) } n : :     ",
"    > > M 6.` g $ $ $ $ & $ $ $ $ $ $ $ $ $ $ $ $ $ $ $ $ $ $ $ g ) 6.M : :     ",
"    > > B 7.] g $ $ $ $ & & & $ $ $ $ $ $ $ $ $ $ $ $ & & & & & g ] 7.B > :     ",
"    < < V 9.{ g & $ $ & $ $ $ $ $ : : : : : : : : : : : : : : : g } w.V > >     ",
"    < < J q.7.z & & & & & & & , g E ( ( ( ( E g , : : : : > > : n 7.q.Z > >     ",
"    < < L u.9.n > : : : : : : 0 } M.Z.Z.Z.Z.M.} w : : : > > > > n 9.y.L < <     ",
"    2 1 T f.t.B > > > > : : > w 7.Z.J.J.J.J.Z.7.w > > > > > > > n 9.u.L < <     ",
"    0 2 R h.p.V < < > > > > > 9 M ] 6.6.6.6.] B 9 < < < < < < < M 9.u.L < <     ",
"    0 0 _ l.f.L 1 1 < < < < < < < < < < < < < < < < < < < < < < M 9.u.I < <     ",
"    i i _ z.g.I 2 1 1 < < < < < < < < < < < < < < < < < < < < < B q.p.L 1 1     ",
"    p p [ z.h.T 2 2 1 1 1 1 1 1 1 1 1 1 1 1 1 1 1 1 1 1 1 1 < < B t.a.T 1 1     ",
"    p p ] c.x.9.I I J J J J J J J J J J J J J J J J J J J V V V ] g.j.R 2 9     ",
"    p p 6.V.F.x.g.f.a.a.a.a.a.a.p.p.p.a.a.a.a.a.a.p.p.p.p.p.u.u.j.m.v.` 2 9     ",
"    p p 8.A.Y.H.S.C.V.V.B.B.N.N.N.N.N.N.N.N.N.N.N.N.N.N.N.N.n.n.V.K.b.' 2 9     ",
"    p p 8.A.T.Y.I.H.H.F.F.F.F.F.F.F.F.F.F.F.F.F.F.F.F.D.D.D.D.D.K.L.b.' 1 9     ",
"    p p 8.A.R.T.T.T.U.U.U.U.U.U.U.U.U.U.U.U.U.U.U.P.P.P.P.P.P.L.L.L.b.' 1 1     ",
"      p ( u.s.s.s.d.i.i.i.i.i.i.i.i.i.i.i.i.i.i.i.i.i.r.r.r.r.r.r.e.0.U 1       ",
"          k k k k k j f f f f f f f f f f f f f f f f f f f f f f f h           ",
"          p i i 0 0 2 2 2 1 1 1 1 1 1 1 1 1 1 1 1 1 1 < < < < < < < <           "
};
