/* XPM */
static char *_e4b0a418df146f29572fc1b4755e170[] = {
/* columns rows colors chars-per-pixel */
"50 50 211 2 ",
"   c None",
".  c #381F1F",
"X  c #3D221C",
"o  c #1F1026",
"O  c #261324",
"+  c #281324",
"@  c #241629",
"#  c #261A2C",
"$  c #291B2C",
"%  c #2C1B26",
"&  c #331E2B",
"*  c #3A1D25",
"=  c #2C1C30",
"-  c #301F32",
";  c #2F202C",
":  c #352325",
">  c #3C2323",
",  c #34222C",
"<  c #392429",
"1  c #3C2E2D",
"2  c #3F2A25",
"3  c #3C302C",
"4  c #2F2232",
"5  c #312531",
"6  c #362A34",
"7  c #3B2D34",
"8  c #3A2D38",
"9  c #362B38",
"0  c #3E3235",
"q  c #3F353A",
"w  c #4E1F0D",
"e  c #501E09",
"r  c #44191C",
"t  c #4C200C",
"y  c #412117",
"u  c #41211A",
"i  c #41281F",
"p  c #472816",
"a  c #572A1E",
"s  c #7A351D",
"d  c #6A3C1E",
"f  c #471A20",
"g  c #4B1D23",
"h  c #501D24",
"j  c #412D2D",
"k  c #542226",
"l  c #592525",
"z  c #552D26",
"x  c #5E2C2D",
"c  c #572C27",
"v  c #44322E",
"b  c #4D372A",
"n  c #563025",
"m  c #5B3223",
"M  c #53332A",
"N  c #452E3C",
"B  c #4C2D3D",
"V  c #472C34",
"C  c #532F3B",
"Z  c #582E33",
"A  c #433534",
"S  c #493735",
"D  c #463933",
"F  c #4C3D32",
"G  c #4D333B",
"H  c #473A3C",
"J  c #4C3A3C",
"K  c #443539",
"L  c #53333C",
"P  c #57383A",
"I  c #612E2D",
"U  c #672E24",
"Y  c #6D3325",
"T  c #65322E",
"R  c #6B342D",
"E  c #6C3C2D",
"W  c #663B2A",
"Q  c #723424",
"!  c #7B3623",
"~  c #733B24",
"^  c #7D3B24",
"/  c #743629",
"(  c #743B2D",
")  c #7D3C29",
"_  c #612D30",
"`  c #643131",
"'  c #6D3630",
"]  c #6C3831",
"[  c #693A36",
"{  c #703732",
"}  c #773E32",
"|  c #77421C",
" . c #4B402F",
".. c #774326",
"X. c #7D4332",
"o. c #784C34",
"O. c #7D5137",
"+. c #67423E",
"@. c #3E3843",
"#. c #453443",
"$. c #4B3644",
"%. c #4A3943",
"&. c #473D4A",
"*. c #543B44",
"=. c #553B48",
"-. c #623F47",
";. c #4A424E",
":. c #494041",
">. c #5D4445",
",. c #55454D",
"<. c #5B454C",
"1. c #5E494C",
"2. c #5C4A47",
"3. c #4B4651",
"4. c #524650",
"5. c #5B4752",
"6. c #6A4544",
"7. c #64464B",
"8. c #6A454B",
"9. c #60494C",
"0. c #634A4C",
"q. c #62494D",
"w. c #64494C",
"e. c #654A4D",
"r. c #634A4C",
"t. c #684B4B",
"y. c #6A4A4A",
"u. c #6D4B4A",
"i. c #6D4B49",
"p. c #68494D",
"a. c #6A4B4C",
"s. c #694A4E",
"d. c #6B484E",
"f. c #6A4A4C",
"g. c #664546",
"h. c #7E5C4E",
"j. c #79564D",
"k. c #634D55",
"l. c #634D59",
"z. c #675355",
"x. c #6C5555",
"c. c #645159",
"v. c #68515A",
"b. c #725755",
"n. c #765A53",
"m. c #7C5B53",
"M. c #73565A",
"N. c #7B5B59",
"B. c #714C55",
"V. c #775C64",
"C. c #7C6365",
"Z. c #863C1C",
"A. c #8A3D1D",
"S. c #813819",
"D. c #933F16",
"F. c #823B23",
"G. c #8A3E26",
"H. c #8C4A1C",
"J. c #88401A",
"K. c #AE5B1D",
"L. c #AE571C",
"P. c #B25E1E",
"I. c #AE631F",
"U. c #B4611D",
"Y. c #B8641E",
"T. c #8B4220",
"R. c #8B4D21",
"E. c #83462C",
"W. c #8C4B2C",
"Q. c #854B29",
"!. c #934E27",
"~. c #924E2B",
"^. c #9C4F2A",
"/. c #9C5227",
"(. c #94522D",
"). c #9C552D",
"_. c #955329",
"`. c #824633",
"'. c #854A34",
"]. c #8B4D34",
"[. c #8C4E3A",
"{. c #914F32",
"}. c #8D5032",
"|. c #8F5438",
" X c #955231",
".X c #9B5432",
"XX c #995A3A",
"oX c #A04F25",
"OX c #A35624",
"+X c #A65925",
"@X c #AC5B24",
"#X c #A2552C",
"$X c #A55A2A",
"%X c #AC5D2A",
"&X c #AD5726",
"*X c #B15E23",
"=X c #B25E2A",
"-X c #A35732",
";X c #AF6025",
":X c #AB602D",
">X c #B36125",
",X c #B96424",
"<X c #B4622B",
"1X c #B9632C",
"2X c #B76233",
"3X c #A76433",
"4X c #815D4E",
"5X c #805C50",
"6X c #846457",
"7X c #846364",
"8X c #967569",
/* pixels */
"                                                                                                    ",
"  8 <.<.k.C.C.*.V.V.k.9.9.9.9.9.9.7.7.7.7.7.C.7X7XM.7.8.7.7.7.8.7.7.8.N.7X7X7X7X7X7X8.8.8.8.8.L     ",
"  <.1.9.9.9.9.9.r.7.9.9.w.w.w.w.w.w.w.w.w.w.w.w.d.d.d.d.d.d.d.d.w.w.f.d.d.d.f.t.i.i.i.i.i.i.i.i.    ",
"  <.1.9.9.9.9.9.9.9.P 9.w.w.w.w.w.w.w.w.w.w.w.w.d.d.d.d.d.d.d.d.f.f.f.f.-.L C B.u.i.i.i.i.i.i.i.    ",
"  <.1.9.9.9.9.9.9.9.9.9.w.w.w.w.w.w.w.w.w.w.w.w.d.d.d.d.d.d.d.d.f.f.d.C d.d.d.d.i.i.i.i.i.i.i.i.    ",
"  G 1.9.9.9.9.9.9.9.9.9.w.w.w.w.w.w.w.w.w.G w.w.d.d.d.d.d.d.d.d.f.t.f.d.d.d.d.i.i.i.i.i.i.i.i.8.    ",
"    %.#.N N B * O O O O + O + O + O O O O O O O O O O O O O O O + + + + + + + + + + V G C C L L     ",
"  3.,.4.,.<.1.=.$ % $ $ $ $ $ $ $ $ $ $ $ $ $ $ % # $ $ $ # # # $ $ $ $ $ $ $ $ & @ 9.9.w.d.f.i.    ",
"  3.4.4.,.<.1.=.$ $ $ $ $ $ $ $ $ $ $ $ $ $ $ $ $ # $ $ $ $ $ $ $ $ $ $ $ $ $ # # @ 9.9.w.d.f.i.    ",
"  3.4.4.,.<.1.=.$ $ O g f g g g g g f g g g r g g g g r g g g f g g g g f f g # $ @ 9.9.w.d.f.i.    ",
"  3.4.4.,.5.1.*.$ $ o x x _ x x x c x x x _ x x x x x c x _ x x I x x x l x g $ $ @ 9.9.w.d.f.i.    ",
"  3.4.4.,.z.1.*.$ $ @ I I _ ` ` ` x ` ` ` ` x x ` ` ` x ` ` x x ` ` ` ` x I h $ $ @ 9.9.w.d.f.i.    ",
"  3.4.,.,.,.$.*.$ $ @ ` T g ` I T ` ` I ` ` ` I ` _ ` ` ` ` ` ` ` ` T T k ` k $ = # r.r.w.i.f.i.    ",
"    $.#.N B B . 4 4 @ T ' k ' T ' R ' T ' ' R Y ' R ' { ' ' ' ] ' ' T R l [ l - $ = j B C C C V     ",
"  l.z.z.x.M.b.-., 5 @ { E l } ( ( ( ] R ] ] 6 ' ] R P 5 ' ] ' R } ( ( ( x [ j 7 5 $ j.m.m.m.+.h.    ",
"  c.z.z.x.b.b.7.6 6 $ `.X.U '.'.`.].z n m n J n n n M 7 z n n I '.E.].].T T A A 6 4 m.m.m.h.N.4X    ",
"  c.z.z.x.b.b.7.9 9 $ '.X.Y ].].'. Xm m < < 0 < < < < 7 < < m U ].E.].}.R ` 7 7 9 4 m.m.m.h.P 5X    ",
"  c.z.z.x.b.b.7.6 6 $ X.'.Y {. XW.M b D D D D D D D D D S D D S |.{. XW.R ` 8 9 6 5 m.m.m.m.8X5X    ",
"  c.z.z.x.b.b.7.6 6 $ X.'.R  X XW.(.W W > > ,.X > > 2 7 > X d U (.(. XW./ T 6 6 7 5 m.m.m.j.5X4X    ",
"  v.z.z.x.b.n.7.7 9 $ E.`.Q (.(.~.(...~ X X H u X X i 7 X X | Q (.(.~.~.Y '.Y 7 9 4 m.m.6.m.m.4X    ",
"  ,.<.<.<.<.7.> 9 7 $ ].`.Q ).).~.).....u y 0 y u u i 7 u u | Q ).).!._./ ].Y 7 >., >.g.6.6.6.6.    ",
"  &.,.4.,.<.1.G 7 7 $ ].`./ ).#X_.M D D S D D D D D D S D D D D ).)._.$X( ].Y 7 7 5 <.r.w.d.a.i.    ",
"  ;.4.4.<.<.1.*.7 7 $ ].'./ $X$X/.$XQ.Q.t e :.w t t p 7 w t H.s $X$X$X#X( ].Y 7 7 5 1.9.w.d.f.i.    ",
"  ;.4.4.<.<.1.*.7 7 $ ].'.! +X+X#X+XR.R.R.H.q R.R.R.o.7 H.H.H.s +X+X+XOX( ].Y 7 7 5 r.9.w.d.f.i.    ",
"  ;.4.4.,.<.1.*.7 7 % {.{.! %X%X%X$XT.T.Z.F.z D.a / ~ i F.T.Z.J.%XOX@X@X) W.Y 8 7 5 r.9.w.d.f.i.    ",
"  ;.4.4.,.<.1.=.8 7 & {.{.! %X+X%X%X%X%XOX%X+X7 0 7 '.%XOX%X%X%X%XOX%X@X) W.Q 8 7 6 1.9.w.d.f.i.    ",
"  ;.4.4.,.<.1.=.8 7 $ (. XF.=X+X*X%X=X=X%X*X;X6 % , K :X@X*X*X+X*X@X*X*X) {.Q 0 0 6 1.9.w.d.f.i.    ",
"  @.4.4.4.<.1.V 8 8 &  X XF.>X@X>X>X>X=X>X>Xo.>XA.D.a *X+X>X>X@X>X>X>X>X)  X~ 0 8 6 *.9.w.d.d.-.    ",
"  $.z.z.x.b.b.P 0 0 ;  X XF.>X>X>X>X>X*X>X>X2Xb 3X@XD >X@X>X>X>X>X>XP.>X.. X! 0 0 6 N.m.6X6X8Xh.    ",
"  l.z.z.M.w.b.7.0 0 $ .X XG.1X<X1X1X%X=X<X1X2XoX< E =X1X=X1X1X<X<X1X*X1XF. X^ 8 0 6 n.m.m.m.5X5X    ",
"  k.z.z.x.b.P w.A 0 , O.O.W ` ' R R ] ) ) ) ) ) ) ) ) ) ) ) ) ) ) ) ) ) F.).F.0 0 6 n.m.m.m.m.5X    ",
"  k.z.z.x.b.b.7.A 0 & r V j 1 1 7 1 7 !..X).)._._.).)._.).).).).).).).~..X~.Z.A A 6 m.m.m.m.m.5X    ",
"  k.z.z.x.b.b.7.A A : _.).Y W.}.}.W.}.[.'.].].].].].'.[.[.'.[.'.[.].[.]..X).Z.A A 6 n.m.m.m.m.5X    ",
"  k.z.z.x.b.b.8.A 1 , ).).Q W.(.(. X{.(.W.(.(.W.(.W.W.(.(.W. XW.(.{.W.(..X).J.A S 7 n.m.m.m.m.5X    ",
"  k.z.z.x.b.b.7.A A , #X#X!  X X X(.~..X!. X).~.(.~. X(. X~. X.X X XW.)..X#XT.A A 7 n.m.m.m.m.5X    ",
"  k.z.z.x.b.b.7.S A , #X#X! )._.)._._.)._.).)._.)._.).).)._..X).).).!.).{.#XT.A A 7 N.m.m.m.m.5X    ",
"  k.z.z.x.b.b.7.D S < +X#X! $X).$X/.$X/./.$X+X).$X/.$X$X$X/.$X$X+X$X/.$X-XXX2.K S 7 P m.m.m.m.5X    ",
"  k.z.z.x.b.b.7.S S < +X#XF.$XOX+X$X$X#X#X+X$XOX$XOX+X$X$XOX+X+X$X$XOX+X.XE.A A S 1 b.m.m.m.m.5X    ",
"  k.z.z.x.b.b.w.S S < +X#XF.%X+X%X$X%X+X%X%X%X%X$X+X%X%X%XOX%X%X%X%X+X%X-XW.1 7 S 3 N.m.m.m.m.5X    ",
"  k.z.z.x.b.b.g.D D < @X$XZ.>X+X*X@X>X@X=X;X>X>X@X>X@X>X>X@X*X>X>X>X@X>X-XW.7 7 S 7 m.m.m.m.m.5X    ",
"  k.z.z.x.b.b.d.D D < %X$XA.>X@X>X*X>XK.>X>X>X>X@X>X@X@X@X>X@X>X>X>XK.>X#XW.6 6 D A n.m.m.m.m.5X    ",
"  k.z.z.x.b.b.d.D D < %X%XA.,X*X>X>X,XK.>X,X,X,X*X>X>X*XP.>XP.,X,X,XP.,X#XL.^.H D A n.m.m.m.m.5X    ",
"  k.z.=.x.b.b.d.D D < @X%XA.,X*X,X,X,X*X*X,X,X,X*X,X,X,X,X,X*X,X,X,XP.,X#X%XOXD D v n.m.m.m.m.5X    ",
"  k.z.z.x.b.b.f.F D < U.=XA.U.U.U.Y.Y.U.P.,X,X>XU.U.,X,X,X,XU.,XY.,XP.,X#X@XOXD D v n.m.m.h.m.4X    ",
"  k.z.z.x.b.b.a.F D < >X=XZ.Z.Z.Z.A.A.Z.Z.A.Z.S.S.Z.A.A.Z.Z.Z.S.Z.Z.Z.Z.#X=XOXF D v n.m.m.m.5X5X    ",
"  k.z.z.x.b.b.d.F F > I.>XK.=X=X=X<X=X=X=X=X=X&X&X=X=X=X=X=X=X<X=X=X%X=X>X>X+XF F v n.m.m.m.m.5X    ",
"    ,.,.<.>.<.: F F 0 v D A v v v A v v v v v v v v j j j j j j j j j j j j 1 J F D G 7.7.8.8.f.    ",
"  ;.4.4.4.<.1.>.F P F  .F F F F F F F F F F F F J F F F F F F F F F F F F F F  .>.S 7.9.w.d.f.f.    ",
"  @.#.#.%.%.J A 1 1 1 1 1 1 1 1 1 1 3 3 3 3 3 3 3 1 1 1 1 1 1 1 1 1 1 1 1 1 1 1 1 1 A G G G L J     ",
"                                                                                                    "
};
