/* XPM */
static char *a0cf00f71a3943efac79335fe671a2cffpAYsi1GCPLprHlM[] = {
/* columns rows colors chars-per-pixel */
"50 50 59 1 ",
"  c #5E5B57",
". c #5E5A58",
"X c #605C57",
"o c #625E59",
"O c #65625C",
"+ c #68655E",
"@ c #6A6661",
"# c #6D6A64",
"$ c #736F6A",
"% c #76726C",
"& c #7B746F",
"* c #7C7671",
"= c #7D7872",
"- c #807B75",
"; c #868279",
": c #8A857D",
"> c #8D887F",
", c #8F8A81",
"< c #928D83",
"1 c #959186",
"2 c #999386",
"3 c #979388",
"4 c #9A958A",
"5 c #9E998E",
"6 c #9F9A90",
"7 c #A09B8F",
"8 c #A39E92",
"9 c #A6A195",
"0 c #A9A397",
"q c #A7A499",
"w c #ACA79A",
"e c #ADA99B",
"r c #ADA89D",
"t c #B1AB9D",
"y c #B0AC9D",
"u c #B2AD9F",
"i c #B4AF9F",
"p c #B2ACA0",
"a c #B1AEA0",
"s c #B4AEA2",
"d c #B4AFA2",
"f c #B5B0A2",
"g c #B6B2A4",
"h c #B9B3A3",
"j c #B8B3A4",
"k c #B9B3A5",
"l c #BBB5A5",
"z c #BDB7A7",
"x c #BEB8A7",
"c c #BBB5A8",
"v c #BDB6A8",
"b c #BCB7A8",
"n c #BEB8AA",
"m c #BFBBAB",
"M c #C1BBAA",
"N c #C0BCAA",
"B c #C1BBAC",
"V c #C2BCAC",
"C c #C5C1B2",
/* pixels */
"88888888883888888888888888888888888589099999990998",
"zMMMMMMMMnuxMMMMMMMMMMMMMMMMMMMMMMMflMMMMMMMMMMMnv",
"vMMMBBMMMnunBMMMMMMMMMMMMMMMMMMMMMMflMMMMMMMMMMMNn",
"vMBMBBBBBnunBBBBMMMMMMMMMMMMMMMMMMMkvNMMBMMMMMMMMn",
"vMMMBBBMMnanBMMMMMMMMMMMMMMMMMMMMMMlvBBMMMMMMMMMBn",
"znnnnvzlhu9uauuuuuuiiiiiiiiiiuuiiiieusffflznMMMMBn",
"9990000008588888883:,:;;;:><<11<<<<>>::::,<<>0w098",
"kzzzzzxxxnnnnnMMMMsrslhfhklllzzzcllllllkhkfs;kzzlk",
"nMMMMMBBBBMMMMMBMMkkfNNVVVNNNMMMMMMNNNNNNNf14nBBMM",
"nBBMMMMMMMMMMMMBMBkMMMMMMMMMMMMMMMMMMMMMMBMV8nMMMn",
"nMMMMMMMMMMMMMMMMBkklMMMMMMMMMMMMMMMMMMMMMww8nMMMn",
"nMMNNMMMMMMMMMMMMBkllNNMNNNMNMMMMNMMVVBBBBlk8nMMMM",
"::::::::>,,,::::;%+###@@OOOOOoo    ooooXXXoo#>1<<<",
"vVMVMMnn,rggggffgklnnnnnnnnnnnnnnnr8BMMMMMMMMMMMMs",
"vMMMMMMM<fMMMMMMMMMMMMMMMMMMMMMMMBr8MMMMMMMMBBMMMs",
"vMMMMMMM,gMMMMMMMMMMMMMMMMMMMMMMMBr7MMMMMMMMMMMMMs",
"vMMMMMMM<kMMMMMMMMMBBBBMMBBBBBBBBBr5MMMMMMMMMMMMMs",
"vMMBBMMM,gMMMMMMMBMMMMVBVBBBBBBBMMu8MMMMMMMMMMMMMs",
"58555443*486441134588900e9188888884300000000000005",
":w0000900rur000000erusfglr;uuuuuuuuuuuuuuuuuuuuuu5",
"<MMMMMMMMMMMMMMMMMMMMMMMMk<MMMMMMMMMMMMMMMMMMMMMB0",
">MMMMMMMMMMMMMMMMMMMMMMMMk<MMMMMMMMMMMMMMMMMMMMMB0",
",MMMMMMMMMMMMMMBMMMMMMMMMk<MMMMMMMMMMMMMMMMMMMMMM0",
",BMMMMMMMMMMMMMBMMMMMMMBMl1BMMMMMMMMBBMMMMMMNMMMMq",
"<kkgaaar0088543<,,>::::::;;gggggggggggggggggggggk8",
"vVVVVVVNVVVVVVVVVl9CCCCCCCCCCCCCCCCCCCCCCCClcCCCCn",
"vMMMMMMMMMMMMMMBMg8NMMMMMMMMBMMMMMMMMMMMMMBsfMMMMM",
"vMMMMMMMMMMMMMBBMg8NMMMMMMMMBMMMMMMMMMMBMMBsfMMMMM",
"vMMMMMMMMMMMMMMMNf8NMMMMMMMMMBMMMMMMMMMMMMMsfMMMMM",
"zMMMMMMBBBBBBBBBNf8BBBMMBBBBBBBBBBMBBBBBBBMssBBBBB",
"uauuuuuuuuuueeeee9<ttttttttttttteeeetttttee98uiuuw",
"uwwww048999988877558888888888888<99999999998800097",
"MMMMMvenBMMMMMMMMMMMMMMMMMMMMMMn8MMMMMMMMMMMMMMBMM",
"MMMMMvenBMMMMMMMMMMMMMMMBMMMMMMn8MMMMMMMMMMMMMBMMM",
"MMMMMvenBMMMMMMMMMMMMMMMMMMMMMMnuMMMMMMMMMMMMMMMMM",
"MMMMMzrnMMMMMMMMMMMMMMMMMMMMMMMncNMMMMMMMMMMMMMMMM",
"BBBVNnevnnnnnnnnnnnnMMMnnnnnnnnvnNMMBBMMMMMMMBBBBM",
"<<<<<<-%%@.ooO@@@@$=-&$##@@@@@@@=::<:4445544422<<:",
"nMMVVMMMMu88MMMMMMMMMNMNMMMMMMMMNNl0<BMMMMMMMMMMMn",
"nMMMMMMMMu88MMMMMMMMMMMMMMMMMMMMMNk9<BMMMMMMMMMMMn",
"nMMMMMMMMr8MNMMMMMMMMMMMMMMMMMMMMMMl,nBMMMMMMMMMMn",
"nMMMMMMMMe5vBMMMMMMMMMMMMMMMMMMMMMkw,MBMMMMMMMMMMn",
"lzzvvvzzz041llllllllllllkkllllllkk83<lvvnnnnnnvvvl",
"90weeeew071555555531111111111111111<<88900005ww008",
"nBMMMMMMBBMMMMMMnBflllllllllllllllllllllllll<lnnMv",
"vMMMMMBMMMMMMMMMNBhnMMMMMMMMMMMBMMMMMMMMMMMV1vMMMM",
"vMMMMMMMMMMMMMMMNBhnMMMMMMMMMMMMMMMMMMMMMMMV<vMMMM",
"vMMMMMMMMMMMMMMMNBhnMMMMMMMMMMMMMMMMBMMMMMMV<zMMMM",
"zMMBBBMMBBMMMMMMBBhnMMMMMMMMMMMMMMMMMMMMMMMN1zMMMM",
"88888889999999999948888888888888888888888888;80009"
};
