/* XPM */
static char *baa537f0c2b04eb29ac03cb3a42ecafbbh2GnOYoSh8Wd7Z6[] = {
/* columns rows colors chars-per-pixel */
"60 60 184 2 ",
"   c #A43C5F",
".  c #9E3D64",
"X  c #A23962",
"o  c #9D4A5A",
"O  c #BA5A4E",
"+  c #A24F57",
"@  c #A84B56",
"#  c #A2465F",
"$  c #A44E5B",
"%  c #AA4C5D",
"&  c #A25357",
"*  c #AA5157",
"=  c #A6525C",
"-  c #AA535B",
";  c #AE5B5C",
":  c #B65157",
">  c #B65D57",
",  c #BC5C56",
"<  c #B1545A",
"1  c #BB565A",
"2  c #B45D5C",
"3  c #BB5D5C",
"4  c #AD615E",
"5  c #B4635D",
"6  c #BC645D",
"7  c #B5695D",
"8  c #BC695D",
"9  c #A24560",
"0  c #A64D61",
"q  c #A65361",
"w  c #AB5361",
"e  c #A75B65",
"r  c #AE5F64",
"t  c #B25D62",
"y  c #B95A60",
"u  c #AF6461",
"i  c #B56362",
"p  c #BB6462",
"a  c #B66A61",
"s  c #BB6B62",
"d  c #B86F68",
"f  c #C15D5D",
"g  c #C2645C",
"h  c #C46A5D",
"j  c #CC6E5B",
"k  c #CA7556",
"l  c #C6725E",
"z  c #CD755C",
"x  c #C6795F",
"c  c #CD795C",
"v  c #D2755C",
"b  c #D47B5D",
"n  c #DB7D5D",
"m  c #C36D61",
"M  c #CB6E63",
"N  c #C57362",
"B  c #CB7562",
"V  c #C67964",
"C  c #CC7B64",
"Z  c #CC7D69",
"A  c #D37762",
"S  c #D27D63",
"D  c #DA7C63",
"F  c #D27E69",
"G  c #DF8E57",
"H  c #D5835D",
"J  c #DB845D",
"K  c #D68A5E",
"L  c #DD8C5E",
"P  c #DE915E",
"I  c #E2865D",
"U  c #E38D5E",
"Y  c #EA8B5D",
"T  c #E4935E",
"R  c #EA945E",
"E  c #E7985D",
"W  c #EC9B5E",
"Q  c #F0975F",
"!  c #F29D5E",
"~  c #EFA15F",
"^  c #F4A25F",
"/  c #F9A55F",
"(  c #FCA85F",
")  c #CE8163",
"_  c #CE826A",
"`  c #D58463",
"'  c #DB8662",
"]  c #D68B61",
"[  c #DD8C63",
"{  c #D3816B",
"}  c #DB866B",
"|  c #DE8F68",
" . c #DE9163",
".. c #DF9862",
"X. c #DD966A",
"o. c #E28662",
"O. c #E28D63",
"+. c #EA8E64",
"@. c #E48D68",
"#. c #F08F62",
"$. c #E49463",
"%. c #EA9563",
"&. c #E69964",
"*. c #EC9B64",
"=. c #E49469",
"-. c #E99669",
";. c #E69A6A",
":. c #EF9C68",
">. c #EC9F69",
",. c #EE9E6B",
"<. c #EE9E69",
"1. c #E89B6D",
"2. c #EB9D6C",
"3. c #ED9D6D",
"4. c #EF9F6E",
"5. c #EC9B69",
"6. c #F39764",
"7. c #F19B62",
"8. c #F19D61",
"9. c #F39D60",
"0. c #F49E61",
"q. c #F39967",
"w. c #F49A65",
"e. c #F09F67",
"r. c #F59F64",
"t. c #F29E64",
"y. c #F89F63",
"u. c #F29E69",
"i. c #EFA163",
"p. c #EEA164",
"a. c #EDA06C",
"s. c #EEA068",
"d. c #F1A061",
"f. c #F3A260",
"g. c #F2A162",
"h. c #F3A263",
"j. c #F4A060",
"k. c #F5A161",
"l. c #F6A361",
"z. c #F4A062",
"x. c #F6A063",
"c. c #F7A363",
"v. c #F4A361",
"b. c #F3A461",
"n. c #F3A462",
"m. c #F5A560",
"M. c #F5A463",
"N. c #F0A166",
"B. c #F2A064",
"V. c #F7A367",
"C. c #F6A065",
"Z. c #F2A466",
"A. c #F5A465",
"S. c #F7A665",
"D. c #F7A765",
"F. c #F5A364",
"G. c #F8A061",
"H. c #FAA062",
"J. c #FCA263",
"K. c #F9A461",
"L. c #FBA461",
"P. c #F9A660",
"I. c #FAA761",
"U. c #F8A563",
"Y. c #F9A463",
"T. c #F9A662",
"R. c #FAA763",
"E. c #FDA560",
"W. c #FEA561",
"Q. c #F9A565",
"!. c #FAA564",
"~. c #F7A866",
"^. c #FBA862",
"/. c #F8A861",
"(. c #FBA864",
"). c #FDA965",
"_. c #FDAA64",
"`. c #FBA965",
"'. c #F7A569",
"]. c #F4A269",
"[. c #F9A569",
"{. c #F4A86A",
"}. c #FDA868",
"|. c #FBAA69",
/* pixels */
"c i.! 0.[ L g H &.n.^ T $.4 U.U W.*.L b [ %.U.t.*.O.5 &.A.J.&.$.b ` $.x.x.$.$.5 R *.W.T -.I m d.W / U =.6 %.$.x.7.-.R 2 ",
"c Q x.d.[ $.h ` &.M.9.1.$.5 ! &.).t.J v ` %.).*.&.$.5 &.`.H.$.$.b ` &.x.d.$.$.5 *.%.U.T -.I s =.x.U.U $.5 &.$.M.*.<.R ; ",
"k T M.0.U &.m ` &.n.*.4.O.i <.&.x.a.J v ` %./.&.-.$.i &.U.H.T $.n _ 7.h.x.&.&.5 $.[ ! E -.I s [ `.d.$.&.5  .E d.*.<.R t ",
"b O.Z.x.[ %.h S -.M.! 4.O.6 &.$.).4.J b } %.U.&.%.+.5 $.A.H.$.%.n ) *.*.x.$.$.5 %.$./.*.1.I a O.x.d.$.%.6 [ &.A.*.a.%.2 ",
"b $.x.V.U %.s ` $.A.9.:.O.6 %.&.`.*.H v ' %.U.*.$.O.6 R '.x.&.$.n S :.d.V.$.$.5 %.R W.W ;.Y s $.*.x.$.&.p [ *.U.*.2.W ; ",
"H $.U.U.L %.h ' $.!.w.<.O.6 R h.}.*.H b [ &.M.*.O.o.5 *.!.w.&.&.J A $.x.d.$.$.5 *.T U.W =.Y s $.*.U.&.%.p [ <.A.W &.7.= ",
"H &.W.M.L %.h [ $.!.*.:.O.a *.*.).&.J b [ -.M.*. .[ 5 7.Z.H.$.&.J S $.V.M.$.$.5 *.T !.9.O.Y d $.*.U.$.$.8 L *.!.T $.! = ",
"H &.W.x.L %.h [ &.!.*.$.o.8 *.i.`.-.J b [ :.M.*.$.o.> 7.*.A.$.&.J S $.V.h.&.$.5 *.T A.*.O.Y d $.*.M.$.%.h [ &.V...O.Q $ ",
"H &.U.w.O.&.h | &.x.t.G J 7 :.9.U.2.J v ' *.V.*.$.o.> %.*.`. .%.n S R '.9.%.%.5 *.E !.*.O.+.d $.t.h.%.%.m | &.w.$.O.R $ ",
"H &.x.t.$.%.h | %.A.N.T U 8 <.9.!.=.$.v [ %.M.h.$.$.5 &.R ). .&.n Z %.V.9.%.*.t *.E V.&.[ #.s $.9.M.%.$.N [ %.9.*.$.x.$ ",
"J -.d.9.$.&.h $.$.!.*.1.$.a *.x.x.[ %.v | &.M.n.$.$.5 &.T V.$.$.D V &.V.h.%.%.t %.%.V.*.[ %.s $.9.A.&.$.l ' &.U.%.J U.= ",
"' &.d.9.P $.h =.$.!.&.4.$.a *.V.d.O.%.v | &.~.M.$.+.5 <.T /.&.T n Z $.A.M.$.&.i &.$.!.*.L R s $.t.!.:.&.N ' *.!.7.L ! q ",
"J $.V.9.P O.h =.&.`.&.<.$.a &.A.x.[ $.z @.&.w.M.%.$.5 =.$._.&.$.D V $.A.M.$.&.i &.$.!.*.[ 6.s =.t.|.*.&.N ' *.!.t.L ! q ",
"` $.!.V.P O.h &.&./.&.].+.s W `.x.| &.j =.7.9.^ %.$.6 O.&.V.&.&.n Z O.A.!.%.&.p &.$.!.*.O.%.s $.h.|.&.=.B ' *.!.9.[ ! = ",
"J T !.<.O.U 8 } &.A.*.4.Y p U |.x.$.&.j &.:.V.i.&.$.6 $.t.y.&.%.n _  .d.!.$.%.p o.$.!.*.[ %.a *.t.'.&.&.B S &.!.! [ 0.w ",
" .$.h.A. .O.g $.*.V.p.<.' s T '.V.O.%.h $.*.A.t.&.%.5 *.t.x.$.&.J { T t.x.&.*.p $.*.U.t.L %.a t.w.A.-.&.N ' *.H.t.L !.@ ",
"L $.A.V.| O.6 %.*.A.t.t.O.m W '.x.$.$.g &.*.A.*.&.-.5 t.&.!.$.$.I F O.*.V.&.*.p &.$.U.t.[ %.a *.w.^ =.$.N [ d.x.].L '.% ",
"T &.x.*.$.O.6 &.*.A.h.:.' m &.V.U.$.$.g =.*.A.&.-.$.i h.E `.T $.I ` *.*.V.&.*.p :.[ !.V.[ R a *.h.U.;.&.N ' t.x.A.[ [.= ",
"*.;.A.&.$.[ 3 %.*.A.h.:.[ m *.V.`.T $.6 =.%.A.*.;.-.7 N.E `.E &.I F *.*.H.&.&.p :.[ !.V.O.*.i &.t.U.;.&.N [ *.M.!.[ [.* ",
"*.1.].%.$.$.6 &.h.!.*.:.' B *.0.U.$.-.g | -.*.h.&.&.a t.&.A.$.-.I S &.*.!.&.&.p &.| !.V.O.%.8 %.s.d.;.&.N [ &.x.`.[ U.= ",
"R ;.d. .T $.6 $.t.!.*.4.} V &.! U.T -.g [ &.*.'.-.%.i -.*.d.%.;.I C $.p.!.&.%.p $.&.H.A.[ *.5 $.w.9.1.*.l J %.H.U.L }.0 ",
"Q ;.x.i.;.R g $.7.!.&.<.` C -.9./ E :.g  .&.*.'.;.$.a &.9.!.&.;.I Z %.N./.%.%.p O.1.0./.[ %.5 %.e.!.$.*.l ' &.w./ [ `.0 ",
"! &.H.h.$.$.8 &.-.!.&.4.D ` *.d.H.&.%.6 O.&.e.N.&.O.a *.h.!.$.;.I V &.*.U.&.%.i -.$.!.M.O.O.i *.*.M.&.$.l [ $.*.M.U A.% ",
"9.$.U.d.$.$.g $.&.`.$.:.D ` t.*.H.;.| 6 O.&.e.*.$.O.8 *.x.U.&.&.I Z &.&.!.*.%.i &.$.!.! | $.5 ].&.`.=.&.m [ $.&.H.O.d.% ",
"0.$.).9.T $.6 $.%.!.[ 4.A ` 7.*.H.=.O.3 O.-.-.&.$.' i &.M.M.$.-.I Z &.&.U.&.-.i &.&.`.*.$.7.5 V.%./.O.;.m ' T $.U.$.*.0 ",
"w.$.).9.E +.6 $.&.`.[ :.M ] &.*.!.$.+.6 U -.V.x.$.' p &.A.x.&.&.J V $.&.!.*.%.i %.$.`.T &.w.5 A.%.A.$.$.l [ $.$.!.O.n.9 ",
"t.&._.x.%.$.6 $.&./ O.$.M [ &.i.x. .$.3 O.&.U.*.$.J 6 *.!.H.&.-.Y Z &.*.'.&.%.i &.%.`.W =.w.5 A.%.~.$.&.N [ $.$.M.[ A.  ",
"%.;.A.x.:.$.6 [ -.!.$.$.h [ %.t.U. .$.3 O.&.!.*.&.' 2 =.A.U.$.-.I C ;.N.x.&.+.t &.$.!.*.| u.r ].%.M.&.&.l [ E t.M.[ !.X ",
"7.&.A.U.<.=.6 O.*.!. .&.6 ' ;.x.!.$.$.3 $.%.`.*.&.J i $.*.!.&.$.[ ) &.h.h.%.$.5 ` t.).9.[ 7.t s.$.d.-.&.N ' *.N.U.] '.. ",
"h.O.A.U.<.@.6 $.&.!.[ N.5 [ &.A.!.&.%.3 O.&.!.*.&.' 5 *.$.!.*. .o.C 1.p.'.&.&.i &.%.U.d.| N.t &.&.U.*.&.m ' 1.t./.] A.. ",
"U.$.U./ &.$.6 $.%.|.E N.2 [ &.U.A.&.*.6 O.$.A.*.$.' i w.$.V.h.[ O.Z *.*.'.&.&.i %.O.!.d.O.V.w $.&.U.*.&.m ` p.w.|.[ [.# ",
"x. .U.!.&.O.6 O.$.`.&.$.5 [ &.U.U.$.%.3 $.&.x.p. .L 5 9.$.).h.L O.V &.*.`.&.W u %.E H.h.[ ].w %.;.U.*.%.N ` *.w.[.[ 7.* ",
"9. .U.!.%.U p $.;.!.N.$.8 | &.).U. .$.3 $.&.!.V.$.O.5 *.$.U.h.| O.C %.i.A.&.&.5 $.$.U.*.[ w.e w.&.!.1.&.x ' R ^ J.P $.O ",
"U.$.U.A.-.O.6 $.&.-.M.:.h | $.U.`.$.%.3 $.&.!.A.$.+.5 x.L ^ h.[ U V $.:.%.<.%.5 *.T !.*.[ u.w !.&.!.*.$.C } T A.V.&.%.1 ",
"!.$.H.M.-.U p $.*.A.! *.h  .$.x.M.[ *.3 U &.A.d.$.o.5 d.T ^ &. .Y V $.*.!.t.%.i &.L x.*.` ].w U.*./.1.&.C ` E M.9.&.&.2 ",
").$.`.! [ O.p &.t.V.<.&.l $.-.*.! O.$.f T *.A.9.$.O.5 *.h./ &.] Y V $.*.h.$.*.i %.O.x.t.H t.w / N.!.*.&.C ` E x.u.&.*.5 ",
").$.).h.L O.p *.9.A.:.w.l $.-.*.U.$.$.g $.&.!.*.$.| i $.A.!.&.[ O.V $.*.V.$.*.i %. .!.p.| *.w U.t.U.*.&.A ' E H.9.&.! 6 ",
").$.).1.U [ p *.9.!.&.V.h *.-.&.!.$.O.6 $.&.'.*.$.+.5 &.U.). .$.U B $.*.h.&.9.p %.$.!.*. .&.= M.*.`.*.&.c ` $.x.0.&._.3 ",
"V.&.`.*.U [ 8 &.*.!.&.H.h 7. .*.M.T T 6 $.%.`.*.$.$.5 $.).A...%.U N $.*.N.&.*.i $.&.!.*. .$.= x.7.`.*.&.z S ;.!.d.&._., ",
"V.&.`.s.$.o.p *.*.!.*.d.8 -.[ A.`.$.O.6 $.%.!.*.$.O.i U '.[.$.%.O.V $.&.'.&.W p  .<.w.x.$.$.* V.*.`.<.&.B Z &.V.d.2.!., ",
"|.&.!.*. .O.6 *.*.!.*.*.8 *.| M.U.&.%.6 %.&.h.h.$.+.i E A.V.E %.Y V $.&.].$.*.i | <.*.).$.$.= !.*.`.<.&.C ` *.x.x.=.).< ",
").&.`.s.O.+.6 <.*.!.*.*.6 *.=.~ !.-.%.6 $.&.x.].&.$.i &.x.V.&.&.O.V T *.V.=.&.i J U '.}.$.T $ ).*.!.s.-.B S &.V.V.' [.; ",
"U.&.).h.O.O.p &.*.!.*.%.6 *.$.x./ &.%.p O.$.*.h.-.$.4 *.x.x.&.%.' N $.*.A.%.%.i [ T `.`. .*.$ U.*.W.h.%.v ` $.'.!.[ V.* ",
"t.&.).]. .O.6 &.*.U.&.%.6 %.+.`./ &.-.6 R $.A.A.:.$.t &.*.V.&.%.I B $.h.!.&.%.p $.&.`.*.%.V.o t.&._.9.&.B C $.*.!.[ h.w ",
"t.$.).'.L U 8 ;.&.U.E $.3 $.$.`./ &.=.3 $.2.A.V.*.+.t &.E x.&.$.o.V &.h.A.$.%.p @.n.e.%.&.U.$ -.$.U.h.&.z C =.*.U.[ d.% ",
"A.| /.x.[ O.s &.*.A.&.&.> :.P '.!.$.$.3 $.&.M.h.:.+.2 *.E ^ $.$.o.V &.'.!.&.&.i O.`.%.%.$.V.$ ].L !.9.&.z A %.Q !.[ 9.0 ",
"V.$._.^ $.o.a &.t.).T t.2 *. .A.A.E $.3 $.&.A.p.&.$.5 %.E / %.&.I B $.].V.$.&.i O.A.W U.$.V.+ V.O.}.*.%.z C &.x.!.| N.$ ",
"*.*.).9.1.' a -.0.).$.e.< 1.$.).V.$.&.3 $.&./.N.&.$.5 U *.U.$.=.I V ;.d.M.&.&.i O.{.( ).$.x.$ q.$.).*.$.b C &.U.!.L *.% ",
"*.&.A.i.&.' s -.w.). .s.* %.$.~.x.$.%.3 U &.~.N.&.$.5 | t.!.&.=.O.N 2.*.A.&.&.i $.{._.[.L V.$ 6.P !.&.&.v C O.V.M.U &.% ",
").&.U.V.-.[ 8 *.9.!.[ 4.* e.$.V.H.&.*.2 $.-.!.N.=.+.5 *.&.M.$. .' V  .*.`.$.$.i ' *.M.A.$.7.& '. .).&.&.z C &.W U.&.&.- ",
"}.&.x.!.*.J m *.*.A.$.].$ ].$.V.x.&.%.3 $.&.M.N.$.$.i t.$.H.$.=.' V X.9.A.&.$.t %.&.d.!.$.t.$ '. .`.&.&.z C h.x.V.&.%.; ",
"}.=.M.A.*.' s *.i.A.$.x.$ '.&.V.M.&.&.2 $.%.A.h.&.$.i t.$.!.L -.J V  .t.V.&.$.i $.t.U.`.[ A.$ '.U `.1.&.c C N.M.V.O.%.- ",
"|. .M.U.*.' m *.*.t.;.x.$ ].$.U.U.1.%.y %.&.A.h.&.+.5 t.$.!.] -.o.V $.9.x.$.*.5 $.h.W.).[ `.$ '.O._.:.&.b C N.M.x.[ 0.< ",
"'.K /.'.*.J m <.9.t.1.V.+ ].=.`./ -.%.3 %.$.x.V.&.+.6 t.$.x.L &.' B $.t.h.$.*.5 %.<.W.`.` !.= N.O.`.&.&.S B <.0.x.L d.% ",
"*.$.!.V.*.L 8 <.t.Z.<.!.+ e.$.H.U.-.%.2  .&.M.h.&.$.6 $.$.V.] %.' C *.9.h.$.*.i %.%.H.!.K '.* &.T A.&.%.S B <.x.V.[ V.% ",
"*.;.!.A.-.[ m s.*.d.*.!.+ u. .U.U.&.%.y $.&.U.h.&.+.i %.$.U.$.%.I Z &.*.!.&.&.2 $.%.9.'.] ].* 7.$.U.*.&.b B <.9.x.L h.% ",
"t.;.A.A.<.' m *.V.9.*.'.& ]. .J.U.&.%.t O.&.~.h.%.+.8 *.T /.%.&.I Z *.! x.%.*.p $.T 7.`.[ *.- ]. ./.W &.b B *.x.V.P *.: ",
"t.;.H.A.*.[ N <.d.].&.$.- ].[ [.W.&.R 2 $.%.U.t.;.+.7 e.T / O.$.I B &.! M.R %.6 %.U *._. .*.= V.[ ).*.&.b B *.H.V.$.%.> ",
"7.1.`.A.&.[ N *.t.|.E $.2 !.[ !._.&.%.y $.&.M.N.-.@.a h.$.`.O.$.O.V $.h.!.&.$.6 %. .9.).$.i.= !.L ).*.%.H x :.x.M.$.$.6 ",
"*.-./.A.T [ B *.7.!.T %.1 x. .!.).%.R 2 T %.A.N.-.$.8 9.&.).L $.Y B U e.).&.$.8 $.L ! `.=.*.$ H. .}.*.T J B &.x.U.$.&.8 "
};
