/* XPM */
static char *_f79d837ad724505db8fac9f9e84fa2dijmXiosGPkJyWC57[] = {
/* columns rows colors chars-per-pixel */
"50 50 227 2 ",
"   c #0A0719",
".  c #090A21",
"X  c #1C1A26",
"o  c #171729",
"O  c #19172C",
"+  c #1C1A2C",
"@  c #1B1A31",
"#  c #1D1A37",
"$  c #261D2A",
"%  c #231F37",
"&  c #1D2237",
"*  c #2C2227",
"=  c #25212E",
"-  c #312225",
";  c #34232C",
":  c #252437",
">  c #332C32",
",  c #312F3E",
"<  c #4D1E29",
"1  c #531D2B",
"2  c #581A28",
"3  c #4F212C",
"4  c #59232D",
"5  c #432636",
"6  c #552532",
"7  c #542E36",
"8  c #463636",
"9  c #65312F",
"0  c #4B413E",
"q  c #60403C",
"w  c #262943",
"e  c #2B2E42",
"r  c #252E4C",
"t  c #2A2E4C",
"y  c #332E45",
"u  c #2A314A",
"i  c #2D334C",
"p  c #353545",
"a  c #32364B",
"s  c #383A49",
"d  c #292F52",
"f  c #2A3352",
"g  c #2B3755",
"h  c #363953",
"j  c #333A5B",
"k  c #413E4B",
"l  c #3E4142",
"z  c #3B445E",
"x  c #3A4265",
"c  c #3C436C",
"v  c #3F4973",
"b  c #4B4346",
"n  c #44444A",
"m  c #544648",
"M  c #544A4B",
"N  c #5D564D",
"B  c #474956",
"V  c #534754",
"C  c #4C515B",
"Z  c #5B5756",
"A  c #6C474A",
"S  c #69484C",
"D  c #7A5A49",
"F  c #644D51",
"G  c #635D54",
"H  c #645F58",
"J  c #745B59",
"K  c #666155",
"L  c #6B655C",
"P  c #6C685D",
"I  c #756257",
"U  c #4A4C66",
"Y  c #454B6B",
"T  c #4D5767",
"R  c #535363",
"E  c #585C67",
"W  c #444A74",
"Q  c #454B7B",
"!  c #545976",
"~  c #635E64",
"^  c #5E6476",
"/  c #6C6865",
"(  c #6C6966",
")  c #736D63",
"_  c #796967",
"`  c #757169",
"'  c #7B736A",
"]  c #6A6976",
"[  c #726B74",
"{  c #6E7071",
"}  c #727273",
"|  c #7B7778",
" . c #8B584D",
".. c #8B6557",
"X. c #99725C",
"o. c #A87D5F",
"O. c #856F6A",
"+. c #8B6E6C",
"@. c #99686E",
"#. c #86746B",
"$. c #827B72",
"%. c #8D7B75",
"&. c #89797E",
"*. c #A27B60",
"=. c #868175",
"-. c #8A8376",
";. c #85827A",
":. c #8C857A",
">. c #8E897D",
",. c #918B7E",
"<. c #A8836A",
"1. c #A88670",
"2. c #A38B7E",
"3. c #BC957C",
"4. c #5D6580",
"5. c #636884",
"6. c #777B85",
"7. c #887881",
"8. c #76808E",
"9. c #7B8598",
"0. c #868481",
"q. c #8E8B84",
"w. c #898589",
"e. c #968A83",
"r. c #938C81",
"t. c #969083",
"y. c #999386",
"u. c #95928A",
"i. c #9C958A",
"p. c #9E998B",
"a. c #898B95",
"s. c #8B929C",
"d. c #96969E",
"f. c #9C9C9D",
"g. c #A48C88",
"h. c #A3968B",
"j. c #A19D8F",
"k. c #AD9D8D",
"l. c #B19784",
"z. c #A39E92",
"x. c #A79B98",
"c. c #B09F99",
"v. c #A3A18F",
"b. c #B3A08B",
"n. c #A5A194",
"m. c #AAA496",
"M. c #A9A59A",
"N. c #ACA59A",
"B. c #AEAA9B",
"V. c #B6A491",
"C. c #B9A49A",
"Z. c #B2AD9E",
"A. c #BAAD9C",
"S. c #BBB39F",
"D. c #8C95AC",
"F. c #959AA3",
"G. c #999DA8",
"H. c #A39FA1",
"J. c #9EA4AC",
"K. c #93A2B5",
"L. c #9CA9B9",
"P. c #9EB2BF",
"I. c #AAA7A6",
"U. c #A4A2A9",
"Y. c #ABABAB",
"T. c #B3ADA1",
"R. c #B5ABA7",
"E. c #B6B1A3",
"W. c #BAB5A5",
"Q. c #BEB9A6",
"!. c #B5B3AC",
"~. c #BCB6A9",
"^. c #BEBAAA",
"/. c #A4AAB5",
"(. c #ABACB4",
"). c #A4ACBB",
"_. c #ADB2B7",
"`. c #B3B4B4",
"'. c #BDBBB2",
"]. c #B6B7B9",
"[. c #BABABA",
"{. c #C49188",
"}. c #C5A088",
"|. c #C7A597",
" X c #C4AEA8",
".X c #C0BBA7",
"XX c #C1BCAA",
"oX c #D4B5A8",
"OX c #C3BDB2",
"+X c #C8BAB6",
"@X c #C3BBBA",
"#X c #E0B7B6",
"$X c #C5C0AD",
"%X c #C6C1B1",
"&X c #C9C5B4",
"*X c #C4C3BA",
"=X c #CAC3B8",
"-X c #CACABE",
";X c #D1CDBE",
":X c #A9BAC7",
">X c #B3BBC2",
",X c #B4B9C6",
"<X c #B9BCC3",
"1X c #AFBED0",
"2X c #BCC2C6",
"3X c #BBC3CA",
"4X c #BDC7D3",
"5X c #C2C3C4",
"6X c #C9C7C1",
"7X c #C6C8C6",
"8X c #CDCBC4",
"9X c #C4C5CA",
"0X c #C5CACC",
"qX c #CBCBCD",
"wX c #D2CEC5",
"eX c #D1CDC8",
"rX c #D4D1C6",
"tX c #D3D3CB",
"yX c #C5CDD4",
"uX c #C8CED4",
"iX c #C5CFD9",
"pX c #CED3D3",
"aX c #C6D0DB",
"sX c #C9D1D9",
"dX c #D4D7D9",
"fX c #D9DCE3",
"gX c #E3E5E8",
/* pixels */
"z.z.z.z.z.z.z.z.z.z.i.z.z.z.z.z.z.z.n.z.z.z.z.z.z.z.z.z.z.z.z.z.j.z.z.i.z.M.M.m.n.M.n.z.B.j.m.n.n.z.",
"^.^.XX^.^.XXXX^.XX^.E.XXXXXX.X.X^.^.^.^.^.XXXX^.^.^..X.X.XXXXXXXXXXXXXE.W.XX.X^.^.XXXXXXXX.X%XXX^.~.",
"Q.Q.XX.X.XXXXX.XXX~.Z.^..X.X.XXX$XXXXXXXXXXX.XQ.XXXXXXXXXX.X.X.XQ.Q.Q.E.W.XXXXXX.X.X.XXX~.Q.XXQ.XX^.",
"Q..XXXXXXXXXXXXXXXW.Z.^..XXXXXXXQ.Q.Q..XXXXXXXXXQ..X.XXXXXXXXXXXXXXXXXW.~.XXXXXXXXXXXXXXXXXXXXXX.X^.",
"^.^.XXXXXXXXXX^.%X~.Z.^.XXXX.XXXXXXXXX.XXX.X^.XXXXXXXXXXXXXXXX.X.XXXXX~.~.XXXX.X.XXXXXQ.$X.X~.XX.X^.",
"~.^.^.^.^.^.~.~.E.T.m.T.T.T.Z.Z.T.E.T.Z.T.T.T.E.T.T.T.T.T.T.T.T.T.T.E.T.T.E.E.E.T.W.~.~..X%X.XXXXX^.",
"n.m.m.m.n.m.m.m.n.n.p.z.z.n.z.j.z.z.y.:.>.>.=.=.:.:.>.r.r.y.y.y.r.,.r.>.:.>.-.-.:.r.r.t.-.m.m.m.m.n.",
"W.W.~.W.W.~.^.^.~..XW.XX~.^..XXX^.^.T.M.T.~.E.E.E.W.W.~.~.~.~.W.W.W.^.W.W.~.W.W.W.~.T.T.:.~.^.~.~.E.",
"^.XXXXXX.XXX.X.X.XXX^..XXX^..XXX^..XW.E.E.^.XXXXXXXXXXXXXXXXXXXX^.XXXXXXXX.X.XXX$X.XE.t.i.~.XXQ.XX.X",
"^..XXXXXXXXXXXXXXXXX.XXXXXQ.XX.X.XXX^..X^.$XXX.X.X.X.X.XXX.XXXXXXXQ.Q..X.XXXXX.XS.XX$X~.m.^.Q.XXXX.X",
"~.^.XX.X.XXXXX.XXXXXQ.XXXXQ.&X;XtXtXtXtX-X=XXXXX^.^.^.XXXXXXXXXXXX.XXXXXXXXX$XXX=X~.B.I.z.OX~.OX.XQ.",
"^.XXXXXX.XXXXXXXXXOX.XXXQ.OXeXqX0X3XJ.J.yXpX*X^.^.^.XX^.^.^.^.^.^.^.OXXX.X^..X^.Q.XX^.W.j.Q..X.XXX^.",
"-.:.>.:.:.:.:.:.=.:.,.,.:.M.9X<X).G.T T L.4Xf.) K L L K K K G G G G H N K G K K H G G H / r.y.,.,.,.",
"~.^.XXXX^.^.^.~.i.B.W.E.~.@XqX9X<X/.8.T 6.).9XtXeX8X@X'.^.^.~.~.~.W.T.M.~.XXXX^.XXXXXX.XXXXXXXQ.^.E.",
"^..XXXXXXXXX.X.Xr.T.XX^.XXOX+X+X@XY.G.6.s.uXdXdXdXpX0X7X*XXX.X.XXX^.B.z.XXOX.XXX^.XXXXXXXX~.^.XX.XE.",
"~.Q..X.X.X.X.X.X,.E.XXQ.W. XoXoXC.c.x.H.5XgXfXsXyXyXsXaX0X7X5X*X%X.XZ.j.XXXXQ..X.X$X.XQ.$XXXXXXXXXE.",
"Q.Q.XXXXXXXXXXQ.,.W.XXQ.,.2.}.X...2.C.x.Y.].>X>X>X>X3XyXiXaXiXyX0X*XE.y.XX.X.XXXXXXXXXXXXXXXXXXXXXT.",
"^.XXXXXXXXXXXXOXr.E.XXXXr.2.3. .D 2.C.x.H.`.[.Y.`.<X2X>X>X2XyXaXiXyX'.z.XXXX.XXXXXXXXXXXXXXXXXXXXXZ.",
"i.z.j.p.i.y.y.i.' i.z.j.i.A.oX|.C.R.R.f.U.`.!.m.Z.!.I.I.Y.I._.<X4XsX`.y.m.m.m.m.m.m.m.m.m.m.m.m.N.p.",
"r.M.M.m.m.m.m.m.z.B.T.Z.m.E.=X+X'.[.(.J._.].E.E.E.B.q.E.~.'.!.Y.].0X[.Z.T.T.T.T.Z.Z.Z.Z.Z.Z.Z.Z.B.p.",
",.~..X.XQ.XXXXXXXX.XXXXX'.].(.(.>X,X/.).2X*XXXXXXXE.,.XXXX%X'.!.XX@X@XXX.X.X.X.X.X.X.X.X.X.X.X.XXXB.",
">.XXXXXXQ.XX.XXXXXQ..XW.].1X:XL.L.L.L.<X*X%X;X;X&XW.,.XXXX.XXXXXXX^.XXXX.X.XXXXXXXXXXXXXXXXXXXXXXXN.",
":.XX.XXX.XXX.XXXXX.XXX!.,X1XP.K.D.9.D.5XrXrX8X8X*X8XB..X.X.XXX^..XQ.XXQ.Q.^.XX.XXXXXXXXXXXXXXXXXXXm.",
">.OX^.XXXXXXA.C.b.k.A.R.(.).K.K.D.4.^ J.7X5XY.f.U.9XpXwX.XXXXXXXXXXXXX^.XX.XXX.X.X.X.X.XXX.XXX.X^.m.",
"y.Z.E.E.Z.Z.k.<.o.*.#.e.U.J.s.5.! z h ^ F._./.F.a.d.5X6X~.W.Z.~.E.E.E.E.E.W.E.E.p.%.$.y.E.W.E.E.E.m.",
"E.%X%XXXXXXXV.1.<.<.D F [ ] U w # & e h ^ 9.s.F.a.w.I.eXwX&XXX$X%X%X%X%Xz.%.%.%.J m 8 ' ~.%X%X$X%X^.",
"W.XXQ.Q..XQ.S.V.V.b.I - = : # @ @ + n C e a U ] | &.:.x.x.T.%XQ.h.O.+.+.A 6 6 6 7 J #.e.Z..XXXXXXX.X",
"Q.XXXXXXXXXXXXXXXXXX' = + @ @ + X l ;.{ O @ s ~ _ %.J q S J k.h.S < 3 1 2 2 1 3 S h..XZ.Z..XXX.XQ..X",
"Q.XXXX.XXXXX.X.XXXXXp.` n o + n / >.v.} : % V &.g.l...9 4 1 A A < < 1 1 < A +.O.h.XX.XZ.Z..XXX.XXXXX",
"~..XXX^.^.XX.XXX^.^..X.Xy./ / i.XXE.;.B O o V g.|.|.{. .2 2 1 1 1 3 A +.O.h.XX.XXXXXXXT.T.XXXXXXXX.X",
"T.Z.T.Z.T.T.B.T.Z.Z.T.Z.B.B.B.q.} | R & .   k h. XoX#X@.1 6 S _ _ _ t.B.>.) r.B.B.B.B.n.n.B.B.Z.B.N.",
"T.B.B.B.B.n.i.z.n.n.n.n.z.z.q.E B U Y j t : C w.w.7.&.F 5 5 m ;.y.z.n.;.b - b L L -.m.z.z.M.m.m.n.z.",
"XX.XXXXX.X~.B.XXXXXX.XXXQ.M.} R Y W W W Y z z T h u e y y > = M / i.i.M - - - - * m i..X.XXXXXXX.X.X",
".XQ.XXXXXX~.B.XX^.XXQ.XXQ.q.R Y W Q Q v x j g d r r r u e & + = = b m ; ; M ' ' ) ) i..X.X.X.X.XXXXX",
"XXXXXXXX.XW.B.^.XXXXXXXXm.{ B x W W c x j d d f f f r w & O @ O O $ $ ; M i.Q.Q.XXXXXXXXXXXXXXXXXXXX",
"^.^.Q.XX.X^.Z.^.^.~.^.XXu.C i j z x j f i t t h h t % # @ @ @ O + + X $ ` XXXXXXXXXXXXXXXXXXXXXXXXXX",
"OXOXXXXXXX^.T.T.OX^.~.~.q.B u i i a a e a h k E 6.R % + + + + + O o X b i.XX^.^.XXXXXXXXXXXXXXXXXXXX",
"r.r.r.y.r.>.$.' ) L G N 0 > , p p p p p B Z Z H P Z b > X X O + + + + Z -.p.p.i.i.i.i.i.i.y.y.y.>.>.",
"~.XXXX%XXXXXXX^.T.z.r.) 8 > ~ 0.0.0.;.q.M.XX^.^.XX^.^.u./ n + + + X k ;.y.W..X.XXXXXXXXX.X.X.X^.XX^.",
"^.XXQ.XXQ.XXXXXXE.p.) 8 8 ) z.Q.XXXX^.^.^.^.^.^.XX^.^.^.^.i.` / / / >.m.,..X$XQ.XXXXXXXXXXXXXXXX.X^.",
"^..XXXXXXXXXXXXX.XB.$.) -.N..X.XQ.XX.X.XXX.XXXQ.XXXXXXXXXXXXXXXXQ.XX.XW.,.~.XX.XQ.XXQ.XXXXXXXXXX.X^.",
"~.^.XX.X.XXXXX.X^.B.i.T.OXXX%X.X.X$XXXXXXXXXXXXX.X.X.X.X.X.X.X.XXXXXE.B.r.XXOX.XXXXXXXXXXX.X.X^.XX^.",
"W.~.^.Q.Q.Q.^.~.XXM.i.p.E.T.~.W.~.^.W.E.W.E.W.E.W.W.W.W.W.W.W.W.E.T.z.i.r.~.^.W.^.~.XX^.~.~..XW.^.~.",
"m.m.N.N.N.B.B.N.n.p.y.y.z.i.j.p.p.p.y.y.y.t.y.y.t.t.t.t.t.t.t.t.y.i.y.r.,.z.n.n.m.m.M.M.i.M.B.m.m.n.",
"~.XX.X.X.XXXXX.X.XXXXX.X%X.X.XXX^.^.E.E.W.E.W.W.~.~.~.~.~.~.~.~.E.W.~.~.W.~.E.~.W.~.~.^.i.~.^.^.^.~.",
"~.XXXXXXXXXXXX.X.XXXQ.Q.Q.XXQ.XXXXXX~.^.XXXXXXXX.X.X.X.X.X.X.X.XXXXXXXXXXXXXQ.XX.X.X~.OXr.~.^.XXXXXX",
"~.^.XXXXXXXXXX.XXX.XXX$XXX$X.XQ..XQ.W.~.XX.XXXXXXXXXXXXXXXXXXXXXXXXXQ..XXXXXXXXXXXXX.XOX,.~.XXXXXX.X",
"~..XXXXXXXXXXX.XXXQ.XXXX^..XXX.XXXXXW.Q.XX.XXX.XXXXXXXXXXXXXXXXX^.XX.XXX^.XXXX.X.XQ.XXXX,.Q.XXQ.XXXX",
"^.^.^.XXXX^.^.XX^.^.^.^.^.^.^.^.^.XXE.^.^.^.^.^.^.^.XXXXXXXXXXXXXXXXXXXXXXXXXXXXXXXXXX^.p.W.^.XXXXXX",
"j.j.j.n.z.j.j.n.n.n.n.n.n.n.n.n.n.n.y.j.z.j.n.j.j.j.j.j.j.j.j.j.j.j.j.j.j.j.j.j.z.z.n.z.$.j.n.m.n.n."
};
