/* XPM */
static char *_8e9cece8d7d4271b9cf2f2d8d7f55cbDOoRvun9yR7KL3dh[] = {
/* columns rows colors chars-per-pixel */
"41 41 239 2 ",
"   c None",
".  c #0E071B",
"X  c #10091F",
"o  c #1C1D1E",
"O  c #120B20",
"+  c #181020",
"@  c #151128",
"#  c #1B192F",
"$  c #191931",
"%  c #1B1930",
"&  c #1A1931",
"*  c #1B1931",
"=  c #1B1A31",
"-  c #191832",
";  c #1A1932",
":  c #1B1932",
">  c #1A1933",
",  c #1B1933",
"<  c #1A1A32",
"1  c #1B1A32",
"2  c #1B1A33",
"3  c #1F1A30",
"4  c #1C1B35",
"5  c #1D1C36",
"6  c #1E1D36",
"7  c #1E1D38",
"8  c #1E1E39",
"9  c #20192A",
"0  c #221A2E",
"q  c #231A2E",
"w  c #391F20",
"e  c #381F21",
"r  c #391F21",
"t  c #381E22",
"y  c #392021",
"u  c #3B2021",
"i  c #392022",
"p  c #3A2022",
"a  c #3A2122",
"s  c #22223A",
"d  c #21233E",
"f  c #24253F",
"g  c #332B3F",
"h  c #571B27",
"j  c #571E25",
"k  c #571C26",
"l  c #571C27",
"z  c #571D27",
"x  c #541D29",
"c  c #571D28",
"v  c #581C28",
"b  c #581D28",
"n  c #591D28",
"m  c #422324",
"M  c #4C2625",
"N  c #5A2427",
"B  c #542826",
"V  c #5B2827",
"C  c #592A27",
"Z  c #582A28",
"A  c #592A28",
"S  c #5B2B28",
"D  c #5D2C28",
"F  c #432F3C",
"G  c #4E3C30",
"H  c #54493F",
"J  c #232541",
"K  c #2A2940",
"L  c #292A43",
"P  c #2E2B42",
"I  c #262B4A",
"U  c #2B2E4B",
"Y  c #282D4C",
"T  c #2A2F4E",
"R  c #2B2F4F",
"E  c #2D2F4C",
"W  c #29304D",
"Q  c #2B304E",
"!  c #2A304F",
"~  c #2B304F",
"^  c #2B314F",
"/  c #343144",
"(  c #2D3352",
")  c #2E3352",
"_  c #2F3453",
"`  c #2F3553",
"'  c #2E3554",
"]  c #303656",
"[  c #303756",
"{  c #313857",
"}  c #353B5C",
"|  c #363D5E",
" . c #363E5E",
".. c #3E425A",
"X. c #394262",
"o. c #3B4464",
"O. c #3C4466",
"+. c #3F486A",
"@. c #5B4747",
"#. c #454A63",
"$. c #40496B",
"%. c #414B6D",
"&. c #424C6E",
"*. c #495373",
"=. c #4D5674",
"-. c #4D5775",
";. c #535A74",
":. c #505977",
">. c #575F7C",
",. c #606578",
"<. c #7F757F",
"1. c #805043",
"2. c #85605D",
"3. c #AF6544",
"4. c #AF6545",
"5. c #BF6F4A",
"6. c #BF704A",
"7. c #9C7B6E",
"8. c #807D7D",
"9. c #A9836D",
"0. c #CC8B5E",
"q. c #CC8B5F",
"w. c #D29061",
"e. c #DA9364",
"r. c #D69B6E",
"t. c #DD9D71",
"y. c #DC9D73",
"u. c #DC9E73",
"i. c #E69C69",
"p. c #E09D6F",
"a. c #E29E6F",
"s. c #E79F6C",
"d. c #E49F6F",
"f. c #E8A26F",
"g. c #E9A775",
"h. c #E0A57F",
"j. c #5E6884",
"k. c #7D7F86",
"l. c #717A91",
"z. c #727A90",
"x. c #727B92",
"c. c #76829B",
"v. c #78849E",
"b. c #7E8BA6",
"n. c gray52",
"m. c #868686",
"M. c #888888",
"N. c #8B8B8B",
"B. c #8E8E8E",
"V. c gray57",
"C. c #9B9B9B",
"Z. c #BC9F91",
"A. c #BDA294",
"S. c #818DA5",
"D. c #8692A9",
"F. c #8A98AF",
"G. c #8B98B0",
"H. c #8D9AB0",
"J. c #909EB6",
"K. c #97A0B5",
"L. c #9CA0B0",
"P. c #91A1B9",
"I. c #92A1B8",
"U. c #92A0B9",
"Y. c #92A1B9",
"T. c #93A1B9",
"R. c #93A2BA",
"E. c #95A3BB",
"W. c #95A4BB",
"Q. c #98A6BD",
"!. c #9EA8B9",
"~. c #9BA8BF",
"^. c #A7A0A5",
"/. c #BDB1AA",
"(. c #A3ABB7",
"). c #ADAEB0",
"_. c #AAAFB5",
"`. c #B1B1B1",
"'. c #B2B2B2",
"]. c #B2B2B4",
"[. c #B4B4B4",
"{. c gray72",
"}. c #BCBCBC",
"|. c gray74",
" X c #CE9E80",
".X c #DBB48F",
"XX c #DBB094",
"oX c #E0B593",
"OX c #ECBF98",
"+X c #CCB6AD",
"@X c #C2B6B7",
"#X c #C8BFBF",
"$X c #E9C09A",
"%X c #F1C297",
"&X c #CFC2BF",
"*X c #EAC5A3",
"=X c #9CA9C0",
"-X c #9EABC1",
";X c #9FACC1",
":X c #9FACC2",
">X c #9FACC3",
",X c #A1AEC3",
"<X c #A3AFC5",
"1X c #A6B3C7",
"2X c #AAB5C9",
"3X c #ABB7CB",
"4X c #ADB8CB",
"5X c #AEB9CB",
"6X c #B0BBCD",
"7X c #BDBFCA",
"8X c #B3BDD0",
"9X c #B3BED0",
"0X c #B6BFD0",
"qX c #B5C0D1",
"wX c #BAC4D4",
"eX c #C3C3C3",
"rX c #C6C6C6",
"tX c #CBC9CF",
"yX c #D0C6C3",
"uX c #D2CDCC",
"iX c #D3CECD",
"pX c #C1CAD9",
"aX c #C1CBD9",
"sX c #C2CAD9",
"dX c #C3CADB",
"fX c #C3CBDB",
"gX c #C3CDDB",
"hX c #C4CDDB",
"jX c #C4CCDC",
"kX c #C7CFDD",
"lX c #C8D0DD",
"zX c #D6D6D7",
"xX c #F2F2F3",
"cX c #F6F6F6",
"vX c gray97",
"bX c #F8F8F8",
"nX c #FBFBFB",
"mX c gray99",
"MX c white",
/* pixels */
"                                                                                  ",
"                                                                                  ",
"                                                                                  ",
"                                                                                  ",
"                                                                                  ",
"                                                                                  ",
"                                                                                  ",
"                                              kXgXP.+ S.P.3XkX                    ",
"                                              wX0Xz./ D.=X8XkXlX                  ",
"                                kXsXkXsX      P.F.9 G.P.7XtXtXtXtX                ",
"                          sXkXkXkXkXkXkXkXkXlX    P.P.K. Xa.d.d.a.  kX            ",
"                      kXkXkXkXkXkXkXkXkXkXkXkXkXhXP.P.y.^.4XiX*XE.kX              ",
"                    kXkXkXkXkXkXkXkXkX~.E.E.E.E.E.P.y.i.G o H .Xo                 ",
"                    kXkXkXkXkXsXQ.Q.Q.          P.P.L.y.w.0.r.%X0.                ",
"                    kXkXkX8X:X:X        MXMXMXxX_.P.P.#Xh.XXyXiX&X                ",
"                    4XhX8X<XP.          MXMXMXnXzX(.P.3X+X@X4X4X4X                ",
"                    P.qX:X          MXMXMXMXMXMXMXrX!.P.6X1XW.:X,XwX              ",
"                      P.          MXMXMXnXcXcXcXMXMX{.H.J.P.=XsXhXP.              ",
"                                  MXMXnXeX'.'.|.nXnX].=.b.P.P.Q.sXP.              ",
"                                MXMXMX|.V.m.V.[.[.[.*.( v.P.P.P.P.P.  6.5.5.6.    ",
"    x l l                       MXMX|.B.m.C.'.[.).*.( ! f s ..P.P.  p 4.5.5.6.    ",
"    l l l l v v v               MXMX{.N.m.N.k.;.=.( ( 7 % % 6 L L p r 4.5.5.6.    ",
"        h l l l l v v v v       2.2.@.8.,.;.#.% # @   % % % % % % q r             ",
"          v v l l l l l l l   l N D M 9.7.<.>.4 4 4     % % % % % % r             ",
"                v v v l l l l l l V 1.e.i.Z.c.J J J         % % %                 ",
"                      v v v x l l l OXg.f.A.z.. . . !                             ",
"              r p             x x x oX$X$X/.z.X O O +.&.{ R                       ",
"        p r r r r r         7 R R R R R R j.v.( &.&.&.&.&. .!                     ",
"      p r r r r r r p   % % % 6 R R R R R ( _ ( &.&.&.&.&.%.o.!                   ",
"                r r r 3 % % % % 6 R R R R R R ! _ &.&.&.&.&.O.!                   ",
"                  r q % % % % % % 7 7 R R R R R ! ] ] $.&.X.' R !                 ",
"                  p % % % % % % % % % d I ! R R R R R }  .] R E F                 ",
"                    % % % % % % % % % %     ! ! R R R R R R U g B                 ",
"                    % % % % % % % %               ! ! ! ! ! P r p V     A         ",
"                      % % % % 2                               p r r A A m         ",
"                                                                r r r r           ",
"                                                                  r r             ",
"                                                                                  ",
"                                                                                  ",
"                                                                                  ",
"                                                                                  "
};
