/* XPM */
static char *image1738074383[] = {
/* columns rows colors chars-per-pixel */
"50 50 216 2 ",
"   c #0A0719",
".  c #090A21",
"X  c #1C1A26",
"o  c #171729",
"O  c #19172C",
"+  c #1C1A2C",
"@  c #1B1A31",
"#  c #1D1A37",
"$  c #261D2A",
"%  c #231F37",
"&  c #1D2237",
"*  c #25212F",
"=  c #312225",
"-  c #33252D",
";  c #252437",
":  c #332F35",
">  c #4D1E29",
",  c #531D2B",
"<  c #581A28",
"1  c #4F212C",
"2  c #422636",
"3  c #552532",
"4  c #542E36",
"5  c #473737",
"6  c #65312F",
"7  c #4C413F",
"8  c #262943",
"9  c #2B2E42",
"0  c #252E4C",
"q  c #2A2E4C",
"w  c #332E45",
"e  c #2A314A",
"r  c #2D334C",
"t  c #343442",
"y  c #33364B",
"u  c #38394A",
"i  c #292F52",
"p  c #2A3352",
"a  c #2B3755",
"s  c #323953",
"d  c #383852",
"f  c #333A5B",
"g  c #413E54",
"h  c #643F43",
"j  c #3B445E",
"k  c #394265",
"l  c #3C436C",
"z  c #3F4973",
"x  c #444243",
"c  c #4F4542",
"v  c #45444A",
"b  c #4A444A",
"n  c #554749",
"m  c #474A57",
"M  c #524952",
"N  c #4D525B",
"B  c #5A5453",
"V  c #6C474A",
"C  c #68484B",
"Z  c #7A5A49",
"A  c #654E51",
"S  c #645B56",
"D  c #625C55",
"F  c #725954",
"G  c #755C5C",
"H  c #666155",
"J  c #6A655B",
"K  c #6C685D",
"L  c #756258",
"P  c #4A4C66",
"I  c #454B6B",
"U  c #4C5466",
"Y  c #4D5968",
"T  c #525263",
"R  c #5A5C69",
"E  c #444A74",
"W  c #454B7B",
"Q  c #545976",
"!  c #5E6476",
"~  c #6C6965",
"^  c #6C6A67",
"/  c #746C63",
"(  c #786867",
")  c #747169",
"_  c #7B736C",
"`  c #6A6976",
"'  c #726C74",
"]  c #6E7070",
"[  c #747474",
"{  c #7C7776",
"}  c #885F48",
"|  c #8D5151",
" . c #8B6557",
".. c #99725C",
"X. c #8A6E6B",
"o. c #83756E",
"O. c #89716D",
"+. c #95706A",
"@. c #837C73",
"#. c #8A7979",
"$. c #A77E61",
"%. c #858175",
"&. c #8A8476",
"*. c #84817E",
"=. c #8C867B",
"-. c #8E887D",
";. c #908378",
":. c #918B7E",
">. c #A98369",
",. c #A98770",
"<. c #A38B7E",
"1. c #BC957C",
"2. c #5D6580",
"3. c #636884",
"4. c #887881",
"5. c #76808E",
"6. c #7B8598",
"7. c #888582",
"8. c #8B8789",
"9. c #938C82",
"0. c #969083",
"q. c #999386",
"w. c #96938A",
"e. c #9B958A",
"r. c #9E998C",
"t. c #898B95",
"y. c #8B929C",
"u. c #9B9A9A",
"i. c #A38C88",
"p. c #A6998B",
"a. c #A19D8F",
"s. c #B39A86",
"d. c #A39E92",
"f. c #A69996",
"g. c #A99F9E",
"h. c #B09F99",
"j. c #B3A28E",
"k. c #A5A194",
"l. c #AAA496",
"z. c #A6A399",
"x. c #ACA69A",
"c. c #AEAA9B",
"v. c #B4A493",
"b. c #B9A599",
"n. c #B2AD9E",
"m. c #B6B29F",
"M. c #8892A9",
"N. c #8C95AC",
"B. c #959AA3",
"V. c #9E9EB4",
"C. c #A39FA1",
"Z. c #9EA4AC",
"A. c #93A2B5",
"S. c #9CA9B9",
"D. c #9EB2BF",
"F. c #A8A6A7",
"G. c #ACACAB",
"H. c #B3ADA1",
"J. c #BBAAA4",
"K. c #B4ADA9",
"L. c #B6B1A3",
"P. c #BAB5A5",
"I. c #BEB9A6",
"U. c #B6B4AD",
"Y. c #BCB6A9",
"T. c #BEBAAA",
"R. c #A5A9B4",
"E. c #ABADB3",
"W. c #A4ACBB",
"Q. c #ACB2B8",
"!. c #B3B4B4",
"~. c #B7B6B6",
"^. c #BCBBB2",
"/. c #BAB8BB",
"(. c #C49188",
"). c #C5A088",
"_. c #C7A597",
"`. c #C3AEA8",
"'. c #C0BBA7",
"]. c #C1B4A9",
"[. c #C1BCAA",
"{. c #D4B5A8",
"}. c #C2B7B7",
"|. c #C2BDB2",
" X c #C8BAB6",
".X c #E0B7B6",
"XX c #C5C0AD",
"oX c #C6C1B1",
"OX c #C9C3B7",
"+X c #C3C2BB",
"@X c #D1CCBE",
"#X c #A9BAC7",
"$X c #B1B7C4",
"%X c #B3BAC2",
"&X c #B9BCC3",
"*X c #AFBED0",
"=X c #BCC3C6",
"-X c #BAC3C9",
";X c #BDC7D2",
":X c #C3C3C3",
">X c #C6C8C5",
",X c #CACBC6",
"<X c #C3C5CA",
"1X c #CBCBCD",
"2X c #D1CEC5",
"3X c #D4D1C4",
"4X c #D7D7CE",
"5X c #C5CDD3",
"6X c #C8CED4",
"7X c #C5CFD9",
"8X c #CCD1D1",
"9X c #C6D0DB",
"0X c #C9D1D9",
"qX c #D7D9D9",
"wX c #D9DCE3",
"eX c #E3E5E8",
/* pixels */
"d.d.k.r.r.d.d.d.d.d.q.f.d.d.d.d.d.d.k.d.r.z.k.d.k.k.k.d.d.d.d.d.a.d.d.p.d.l.x.l.l.x.d.d.x.a.l.l.l.a.",
"T.T.XXT.XXT.[.^.[.'.H.|.[.[.[.[.[.T.T.T.T.[.T.T.T.T.[.[.[.[.[.|.|.[.[.P.K.|.'.'.Y.[.[.[.[.'.|.[.].'.",
"I.I.T.T.'.'.[.'.'.I.n.T.].'.'.[.XXXXT.XX'.'.'.I.'.XX'.'.'.'.'.'.'.'.'.L.P.[.[.'.[.[.[.|.P.'.[.'.[.T.",
"I.I.XX'.[.[.[.[.[.P.n.T.[.[.[.[.I.I.I.I.XX'.'.[.T.I.'.'.[.[.[.[.[.[.'.Y.Y.'.[.[.[.[.[.[.[.'.[.[.[.].",
"T.T.^.XXXXT.T.T.|.].H.Y.[.|.[.[.'.XX[.[.[.[.T.[.[.[.[.[.[.[.[.[.'.[.[.Y.P.[.[.[.[.[.'.'.[.'.Y.[.[.T.",
"Y.T.[.[.T.T.T.T.L.H.l.H.H.H.n.n.H.L.H.c.H.L.H.L.J.H.H.L.L.H.H.H.L.H.H.H.H.P.K.K.L.P.Y.Y.'.oX[.|.[.T.",
"k.k.z.k.k.z.z.z.l.k.a.d.d.d.d.d.d.d.w.=.9.-.%.%.=.=.-.:.9.q.q.q.:.:.9.-.;.-.&.&.&.9.9.q.&.l.l.l.d.d.",
"P.P.P.P.P.Y.P.T.Y.].P.[.].[.[.[.T.^.H.z.H.U.L.L.L.P.P.Y.Y.Y.Y.P.Y.Y.].P.P.Y.P.P.J.Y.L.H.&.P.Y.Y.Y.Y.",
"[.T.[.[.'.[.[.[.'.|.'.[.[.].[.[.T.'.P.L.m.T.T.T.[.[.XXI.'.'.[.[.'.[.[.[.[.[.[.[.[.'.m.0.q.Y.[.I.[.[.",
"T.T.[.[.'.[.[.'.[.[.'.[.[.'.[.'.'.T.I.T.T.oXXXT.[.'.T.T.'.T.[.'.[.'.'.'.'.[.[.[.].'.|.'.x.'.'.[.[.'.",
"T.T.'.I.'.[.'.T.[.'.T.'.[.'.[.[.XXT.m.L.L.T.[.XX'.T.T.XXOX3X4X4X4X2X@X X'.[.XX[.OX'.x.F.f.^.Y.|.'.Y.",
"T.T.T.XX[.[.[.[.|.|.[.[.'.'.|.'.T.T.U.T.T.XXT.T.[.[.XX+X8X8XS.Z.=X<X1X2XOX'.[.'.'.'.'.P.a.I.'.I.[.'.",
"=.=.-.-.=.=.=.=.#.:.:.:.&.&.:.&.%.) K K K K J K J H J u.;XS.Y Y N.E.&X&X8.H H H S S S S / 9.q.9.9.:.",
"Y.^.|.[.T.T.|.].w.c.K.Y.L.L.K.H.U.U.L.T.T.T.^.+X,X2X4X;XD.5.Y 5.R.&X<X1X+X}.[.[.[.[.XX'.'.[.'.].'.L.",
"T.T.[.'.'.[.[.'.9.H.].'.[.[.|.|.XXXXT.XXT.+X>X1X8XqXqXqX5Xy.5.z.F. X X|. X|.'.[.].[.[.[.|.'.[.[.'.L.",
"P.I.'.'.'.'.'.'.9.H.|.'.'.'.'.[.I.oX+X+X>X5X7X0X6X7X8XwXeX=XC.z.h.b.{.{.`.Y.I.'.'.XX'.'.XX[.[.[.[.K.",
"Y.Y.[.[.[.[.[.'.:.Y.'.Y.'.[.'.|.+X,X5X9X9X9X;X-X#XQ.%X%X/.G.C.b.<. ...).0.:.'.[.[.[.[.'.'.[.'.[.[.H.",
"I.|.[.[.|.[.[.[.9.L.|.'.[.[.[.+X7X9X9X5X=X&X=X=X&X!.G.~.Q.C.f.J.i.} } 1.<.0.].[.[.[.[.[.[.[.[.|.[.H.",
"e.d.r.r.p.q.q.e.o.w.a.a.e.q.q.!.9X;X%XE.F.G.F.^.T.z.9.K.!.F.B.K.J.b._.{.`.d.l.x.x.l.x.l.l.l.l.x.x.r.",
"9.x.x.l.l.l.l.x.d.x.H.n.l.l.l.~.<X!.G.G.^.^.Y.Y.P.c.9.H.!.$XC.E./.^.OX X].L.H.H.n.n.n.H.n.n.H.H.c.r.",
":.Y.'.'.'.[.[.[.|.'.[.[.'.'.[.+X+XT.U.^.OX[.[.[.[.Y.:.[.+X=XW.R.#X$XR.E.Q.^.'.'.'.'.'.'.'.'.'.'.T.x.",
"-.[.[.[.'.[.'.[.[.'.'.'.I.XX'.'.T.T.XX'.XXT.[.'.[.[.H.2XoXOX&XS.S.D.S.#X-X$XY.'.[.[.XX'.[.'.[.[.[.x.",
"-.[.[.[.'.[.'.|.[.'.[.[.'.XXT.'.I.'.[.[.'.[.[.@X2X+X+X2X2X2X:XM.6.N.A.D.*X#XU.'.[.[.[.'.'.'.[.'.[.l.",
"-.|.'.[.[.'.[.|.[.[.[.'.T.XXT.[.'.[.[.[.'.[.2XqX<XF.u.G.:X>XZ.! ! N.A.V.W.W.K.m.s.s.v.].[.[.[.[.T.k.",
"q.H.P.L.n.n.q.o.o.9.d.d.r.e.w.0.8.9.-.=.;.7.^.:XB.t.B.R.Q.B.! y k Q 3.M.Z.F.q.+.>.>.>.k.H.P.P.L.L.z.",
"P.|.oXXX|.[.o.5 n G #.O.#.f.T.T.T.L.x.|. X2X2XF.8.t.B.y.6.! j 9 & # 8 P ! ' A Z >.>.,.j.T.XXXXoXoXT.",
"].'.'.'.'.'.i.o.G 4 3 3 3 C X.X.o.q.a.oXn.h.g.7.4.{ ` P y 9 m v + & # # % $ = G s.v.l.v.n.T.'.'.[.'.",
"m.'.[.[.'.'.'.XXp.C 1 , < < < , > C ;.d.G C 6 F #.( ~ y & o ] r.x X O @ % O ; _ I.XX[.n.m.T.XXT.T.T.",
"'.[.[.'.[.'.'.[.'.p.O.X.V > 1 , > > h V < < 6  .i.i.#.M & & ) '.w.~ v X o v ) r.'.[.[.L.m.T.T.T.[.'.",
"Y.[.[.Y.T.XX[.[.T.T.'.[.p.O.O.V > > , , < < | (._._.i.n o o m r.T.XXw.~ ~ w.[.T.'.'.[.H.L.T.XX[.|.'.",
"H.n.H.n.H.H.n.H.H.L.n.0./ 7.H.9.( G G h < < +..X{.`.u.g   . & R { { w.c.x.H.n.c.c.c.c.k.k.c.n.n.n.x.",
"H.x.n.x.x.k.r.d.#.J J 7 = 7 @.d.f.e.@.M g 2 V 4.4.4.8.U ; r f I U j R 8.d.k.z.k.k.k.k.d.d.l.k.z.z.r.",
"[.'.'.[.[.Y.x.r.c $ = = = = n a.e._ M * : t w 9 9 j U j j z z z E I T [ k.XXI.T.'.'.[.[.[.[.|.[.[.[.",
"[.'.[.[.'.Y.x.r./ / / _ n = - n b ; * X & 8 e 0 q 0 e r f k z z W W I T 9.XXT.XX'.[.[.'.[.'.'.'.[.'.",
"[.[.[.[.'.P.x.'.[.[.[.XXq.n - $ $ O o @ o & 8 0 i i p 0 i f k l z I k m ] l.].'.XX[.XX'.[.[.[.'.[.'.",
"'.'.'.[.'.'.n.Y.[.Y.'.[.[._ $ X + @ o @ @ @ @ & q d s p q r a s k k s a m w.'.[.'.[.'.'.'.'.[.[.'.[.",
"|.|.'.|.[.Y.n.H.XXT.T.T.Y.w.b X o X O + + + + ; T 4.~ d d y e y y r r e b w.'.'.|.[.|.[.|.[.[.[.[.[.",
"9.0.9.q.9.-.@.o.) K D B J J g + + + + O + X : v B J B N B v t t u y y t : B :.q.e.p.e.e.e.q.q.q.:.-.",
"Y.[.[.oX|.|.[.[.Y.H.k.d.T.T.0.7 X + X + v / w.T.|.T.T.[.[.z.7.*.7.7.#.B - 5 o.x.x.L.|.[.[.[.T.T.T.^.",
"].[.'.[.Y.'.[.[.^.n.a.a.^.[.P.0.~ ^ ~ ] r.T.[.'.T.T.[.[.T.[.[.[.[.[.L.9.B 5 5 @.l.L.'.'.[.'.'.[.[.T.",
"T.[.'.'.'.[.[.[.'.n.a.'.'.'.'.'.I.[.'.'.'.'.'.'.T.'.T.'.^.'.^.'.'.[.[.P.@.#./ 0.P.'.'.[.[.[.[.[.T.T.",
"T.[.'.'.'.[.'.'.T.c.r.H.OX[.oX[.'.XX'.'.XX[.[.'.[.[.[.[.T.'.'.'.|.[.K.x.:.[.|.].[.[.[.'.[.[.[.'.T.T.",
"P.Y.I.I.'.'.].'.T.x.w.p.L.H.Y.P.Y.T.P.L.Y.L.Y.P.P.P.I.P.I.P.m.I.L.H.d.p.9.Y.|.Y.'.Y.'.Y.Y.Y.'.Y.T.I.",
"l.x.l.v.x.x.x.x.k.r.w.w.d.e.a.r.r.r.0.w.q.q.q.0.:.0.0.0.:.0.0.0.q.e.q.9.:.d.d.d.l.l.x.l.p.x.x.l.k.k.",
"Y.[.[.[.[.[.[.[.[.[.[.'.oX'.'.'.T.T.P.L.Y.P.P.P.'.P.T.Y.I.I.U.I.L.P.P.Y.P.Y.P.P.Y.Y.P.[.q.P.Y.T.T.P.",
"Y.'.[.[.[.[.[.[.'.'.'.'.'.'.'.[.T.XXT.T.T.T.XXXX[.[.T.T.^.'.'.'.[.[.'.'.[.[.'.'.'.[.Y.|.9.T.'.'.XX[.",
"Y.Y.[.[.'.[.[.'.[.'.'.|.[.|.'.Y.'.'.P.P.XXT.'.[.[.[.[.[.XX'.XX'.'.[.'.'.[.'.'.[.[.[.'.|.:.I.[.[.[.'.",
"Y.[.[.'.[.'.[.'.[.'.[.[.'.[.[.[.[.[.m.I.[.I.[.'.'.[.'.'.'.'.'.'.[.|.[.[.[.[.[.'.'.'.[.[.:.I.[.'.[.'.",
"T.T.T.XXT.T.T.[.[.T.T.T.T.T.'.'.^.^.m.I.^.^.'.XXXX^.'.XXXX^.'.^.[.'.'.[.[.XXT.^.XX[.^.T.r.P.T.[.XX[.",
"a.a.r.k.k.a.a.k.k.k.k.a.k.k.k.k.k.k.w.a.a.a.a.a.a.a.a.a.a.a.a.a.a.d.a.d.k.r.a.k.a.a.a.k.%.a.k.k.k.k."
};
