/* XPM */
static char *_bdebf43983545a4c093f4ec7ad7c963UpGToGC6FXiHjJLH[] = {
/* columns rows colors chars-per-pixel */
"50 50 107 2 ",
"   c #17040C",
".  c #1A070C",
"X  c #1B080C",
"o  c #1D0A0E",
"O  c #1F0C0F",
"+  c #220F0D",
"@  c #23100E",
"#  c #24110D",
"$  c #27150E",
"%  c #29160E",
"&  c #2B180E",
"*  c #2E1B0F",
"=  c #301E0F",
"-  c #200C10",
";  c #251114",
":  c #2D1A10",
">  c #2C1818",
",  c #311B15",
"<  c #321D18",
"1  c #32200F",
"2  c #34220F",
"3  c #372510",
"4  c #392710",
"5  c #3A2810",
"6  c #3E2B11",
"7  c #3E2C12",
"8  c #39231D",
"9  c #3E2A1A",
"0  c #3D2721",
"q  c #3E2821",
"w  c #402D13",
"e  c #432F14",
"r  c #422A1B",
"t  c #422C18",
"y  c #473317",
"u  c #493417",
"i  c #463218",
"p  c #4A3518",
"a  c #4C3719",
"s  c #4B341C",
"d  c #4E371C",
"f  c #4E381A",
"g  c #4F3B1E",
"h  c #513B1C",
"j  c #533D1F",
"k  c #543D1D",
"l  c #402922",
"z  c #432E21",
"x  c #412B24",
"c  c #4C3722",
"v  c #533A22",
"b  c #573E21",
"n  c #554023",
"m  c #574224",
"M  c #594221",
"N  c #5C4322",
"B  c #5E4523",
"V  c #5B4527",
"C  c #5F4624",
"Z  c #5F452C",
"A  c #5E4828",
"S  c #5D4533",
"D  c #604724",
"F  c #614825",
"G  c #654B27",
"H  c #604A2A",
"J  c #644B29",
"K  c #674D2A",
"L  c #6A4F2A",
"P  c #67502E",
"I  c #6B502B",
"U  c #6D512B",
"Y  c #6F532C",
"T  c #70542D",
"R  c #6A5332",
"E  c #6C5330",
"W  c #6E5430",
"Q  c #6F5735",
"!  c #735630",
"~  c #755932",
"^  c #785B34",
"/  c #795C35",
"(  c #73583B",
")  c #775E3A",
"_  c #7A5E38",
"`  c #7C5F38",
"'  c #7E6139",
"]  c #7D623D",
"[  c #7A5F43",
"{  c #7F6541",
"}  c #80643C",
"|  c #816547",
" . c #866941",
".. c #846A44",
"X. c #886B43",
"o. c #8B6E45",
"O. c #8A6F48",
"+. c #8C704C",
"@. c #907249",
"#. c #93764D",
"$. c #96794F",
"%. c #947850",
"&. c #997D53",
"*. c #9A7D54",
"=. c #9E8156",
"-. c #A18359",
";. c #A4865B",
/* pixels */
"U 5 J U U U j U V #.U U U U U U U U ;.U   Y N #.X.U   % U U   T } U B V _ U U U U *.U U U U U U 5 =.",
"U 3 U U V 5 U U U 5 5 w 5 U U U 5 k U U   U 5 5 ;.5     U U   U 5 U 5 U U Q 5 5 5 U k ;.5 5 =.U 5 5 ",
"U L U U U U U U U U U U U ;.~ % U U U t U U %   U U  .D X.  U T U U U X. .U U U U C U X.U U U / r U ",
"5 2 L 3 3 3 +.d 3 3 3 5 &.3 5   J 3   * 5 ;.    J 5   $ J   L F h 5 L U L 5 5 5 5 L J 5 5 &.2 5   M ",
"U =.;.5 U U U U U U U U   U U U ;.U U U 5   U 5 U U U U ;.U U U   U U U U ;.U U U   U U U U U U 5 ;.",
"U L U 5 U 5 U U U U 5 U   U w p U U U 5 U 3 U 5 F U 7 U U k 5 U % U 5 U U U p y U   U 5 U U U U 5 U ",
";.U U 5 B U &.;.;.U 5 X U 5 5 U ; 5 5 U 5 w U 5 ;.U U %   #.U U U ;.= 5 U ;.5 '   U Q 5 U   w Q 5 U ",
"U U U ;.} U =.U X.U U w U U N U o U U N U T U U U U U U U U 5 L U % U 5 U y Q U   U ] k U   w y Q N ",
";.3 U U U =.U  .i ` U L U U 7 U U -.U   U U     U i *.R U @ U i k =.U U U -.U U ! F U &.B U U e L U ",
"5 3 U 5 5 5 5 k U B 5 U k U U 5 L U U   U U     U ;.5 % U + U U U 5 U U U U U U ;.=.U U U U &.U 5 U ",
"U * U U U U -.~ 5 ] U U U U U U U U #.U   ` U ;.B U X a U U 5 $.G U = U m U U F U f U U U U L U p #.",
"U   U 5 ..5 U U ;.5 5 U Q U U U w U U U   U 5 5 ;.;.X % U U ;.L 5 U = U U Q 5 5 U U 5 ;.5 5 U U 5 5 ",
"X.w U U U U L D   G U U $.U U U U   U U U ;.U X.U U 3 D   k U U U ;.U U U z U N U U U U U k e W Q U ",
"U L U U U U 5 U   U L L U U U L U   U u 5 U U 5 U w 3 U 5 U L U U U 6 5 U % U I U U U U 5 U 5 U U U ",
"U   5 5   U 5   5   ;.  5 U = 5 ; X.5 = ;.  5 ;.;.;.! U U ;.;.5     ;.5 ;.;.5 5 U ;.;.U U U 5 ;.U ;.",
"U F e B + U u B U   U B e U = U + U U 5 U J U U U U L U U U U U U   U U U U + U U ` U ' U U C U U U ",
"U L % U 5 ;.&.U 5 B U U ;.U U U =.k 5 U   U Q 5 5 U   % ;.U   ;.5 U B   U 5 ;.' U U X.U U U U U 5 V ",
"U h U Q G U U / ;.} U U $.U U U k D U U   U y k Q U   % U U   } U U 5 U U D U k U o.H k a k n U 5 k ",
";.5 U U f U U =.5 U U U k L B 5 U -.i . U U %   U w g k U   U *.k U U U U  .U U ;.L U ;.U w U k L U ",
"5 5 U ;.5 5 L 5 ;.U 5 U k U U 5 U U U [ U U %   p ;.5 5 U   U U U U U U U X.U p U ;.U U U 5 ! U 5 U ",
"p y U 5 w U U N U U B p   U / U A N U / U   U ..k U U U V F U U   U X.U f E p X.U   p U U U f U B U ",
"U U U 5 U 5 U U U U U U   U p ;.U U U U U 3 U 5 V U U U U ..5 U % U U U U U U B U   U 5 U U U U U U ",
";. .;.Q } X.k O.;.X.% & | ;.) ;.- 1 Q +.;.X.W X.%.;.-.+   ;.% : ;.  # % X.O.  ;.  %   Q k   Q Q   @.",
"U =.U L U U U U U U U O U U U U X U U @.U U U w U U U U U U 5 U U   U L U Q U U   U U 5 U   U 5 U U ",
"5   U 5 ..U U U 5 U U ;.k U   5 5 5 U   U ;.    5   5 Q 5   ;.5 5 5 U ;.U ;.5 U U 5 X.5 ;.U =.  5 ;.",
"U b U U U U U ' ;.U U U U U U 5 U U ;.  U U     K B u i U   U U C p U U U ~ U U U C ~ U U U C U U U ",
"U 3 5 ;.p 5 5 U 5 5 ;.U X.U U U ! U 5 '   U X.;.= 5 X 5 ;.U   ;.Q U = 5 U k 5 ..U U Q U U 5 U U 5 ;.",
"U 3 U k k U U U Q U k U O.U U U U U U U   U k 5 { 5 X 5 U U ;.h U U = U U k U a U =.k U 5 k ) U 5 N ",
"U L U 5 U U U L   U ! Y U 5 7 ;.U   U Y U L 6 ;.7 5 %.U 3 U =.U k L B U U S L w U U U U 7 L o U L &.",
"U w U 5 U U L 5   U U U U U U U U   U p U U U U #.U 3 U 5 U U U U U U 5 U % U U U U 5 U 5 5 5 U U U ",
"x   x x   5 x       x   x x       x     x   o x x x q o x x x q o   x x q x   . x q x + x x x > x x ",
"U U k U   U 5 U U   U U 5 U v U w U U 5 U J U U U U =.U U U ;.L k   U U 5 U   U U U U 5 U U U U ;.U ",
";.r + ;.} ;.R $.Q } X.W ;.k %.k : Q Q ;.  % S Q   Q     ;.X.  o.5 % #   X.] ;.] X.5 k U X.;.h s   9 ",
"U U U U U U U U L U U T U U U U - U U U   U U 5 U U   % U U   ^ U U = U U U U U U p U U U U U U U U ",
";.3 U 5 V U U k 5 U ;.;.k U =   5 5 ;.  U ;.    5   5 ;.5   ;.&.5 U U ;.U ;.U U 5 5 X.5 ;.5 ;.%   ;.",
"U B U B U B U ~ V U U U U U U 5 U U ..Z U U %   F B 6 G U   U U G U U U U ' U U U B ~ U U U B U 5 U ",
"U U U 5 U 5 U 5 5 U 5 =.  ;.U U ;.5 ;...U 3 U ;.U 5 U 5 ;.U U U % U V ;.5 ;.5 U ;.  X.5 U U 5 U 5 U ",
"U U U % 5 5 U 5 U U U h   U p U U U U N U 3 W 5 U Q M U U U 5 M % U G U U U U B U   y U U U 5 U k U ",
"                                                                                        .           ",
"U U U U U U w U U U U w U 5 U U + U U U U U U U U 5 =.k ;.U 5 U U 5 B U U U U U   U U 5 U   U k U U ",
"    o , x x , , + x x x x x .   . < x   x x     x   x o     x 0 x   O x x < x x x x 8 x x x l o   x ",
"U J U U U U U U U U U 5 U U p 5 U U U   U U     U U w U U + U U U 5 U U U U ;.U U U U U 5 U U k U U ",
";.  1 ;.P ;.4 X.Q { X.M ;.X.Q X.k Q Q ;.  % ( Q   Q . z ;.X.  =.c %   % X.H ;.S X.5 n U X.Q 5 W % Q ",
"U D U U U U U U U U =.&.U U U U U U U U   U U 5 C U X 5 U U w &.U U . U U U U U U L U U U U U U U U ",
";.i U ;.' ;.i Q   U U i ;.;.;.5 ;.  5 #.;.;.;.5 5 ;.  5 5 U ;.;.;.;.;.;.U r ;.5 ;.;.;.U ..5 ; ;.;.;.",
"U U U 5 U U L H   U U U U U k U U   ..F U U U U M U 3 ~ 5 U 5 U U U U B U   ..U U U 5 U 5 5 X U U U ",
"5 5 5 5 ;.5 5 5   5 5 5 5 5 V   5     + 5 5 5 5 5 5   5 5 5 5 ;.5 5 5   5   5 5 5 ;.5 5   5   5 ;.5 ",
"U U k U + U w D U   U k k U v k 5 U U # U %.D X.5 U U U U U U U k   U U h U 5 N U U U 5 U U U U U U ",
"                                                                                                    ",
"U J k U U 5 U U U U U U U U U U w U U U   U U 5 U U   % U U   U U U = 5 U U 5 U U U U U ' 5 U U U U "
};
