/* XPM */
static char *_8fec8c6c1e94a2288586050be4015a2tCz6GOOgDa8aZ2nr[] = {
/* columns rows colors chars-per-pixel */
"60 60 165 2 ",
"   c #060224",
".  c #0A0426",
"X  c #070229",
"o  c #0C062C",
"O  c #0D092D",
"+  c #100726",
"@  c #12062A",
"#  c #120A2E",
"$  c #1A0B2D",
"%  c #0E0731",
"&  c #0E0B32",
"*  c #0F0D39",
"=  c #130733",
"-  c #180731",
";  c #120C34",
":  c #1A0E34",
">  c #140E39",
",  c #1A0E3C",
"<  c #0E1039",
"1  c #141136",
"2  c #1A1135",
"3  c #15123B",
"4  c #1A133C",
"5  c #16183E",
"6  c #19183F",
"7  c #230E2C",
"8  c #2E0C2F",
"9  c #24112E",
"0  c #2A112E",
"q  c #32132F",
"w  c #230E33",
"e  c #240F39",
"r  c #231235",
"t  c #2C1536",
"y  c #251836",
"u  c #24143B",
"i  c #2A143C",
"p  c #22193D",
"a  c #2C183B",
"s  c #331333",
"d  c #391636",
"f  c #3D1837",
"g  c #33143A",
"h  c #33193C",
"j  c #391B3C",
"k  c #481737",
"l  c #431A38",
"z  c #521D36",
"x  c #5A1E38",
"c  c #160F42",
"v  c #1C0F42",
"b  c #171542",
"n  c #1A1642",
"m  c #171942",
"M  c #1B1B45",
"N  c #1D1649",
"B  c #1A1D48",
"V  c #1B1C48",
"C  c #1B1C4A",
"Z  c #1D1C48",
"A  c #1C1D49",
"S  c #1C1D4B",
"D  c #1D1E4A",
"F  c #1E1F4B",
"G  c #1E1C4D",
"H  c #1C1D49",
"J  c #251641",
"K  c #231643",
"L  c #2D1746",
"P  c #2A1743",
"I  c #201841",
"U  c #221A41",
"Y  c #211942",
"T  c #201943",
"R  c #211A43",
"E  c #231D43",
"W  c #201B44",
"Q  c #221B45",
"!  c #201A46",
"~  c #251A45",
"^  c #231C46",
"/  c #241E44",
"(  c #241D47",
")  c #231B45",
"_  c #2A1B42",
"`  c #2C1A42",
"'  c #2F1D43",
"]  c #2B1C44",
"[  c #231C48",
"{  c #201F49",
"}  c #201F4B",
"|  c #261F49",
" . c #241E4A",
".. c #251E4A",
"X. c #251F4B",
"o. c #271E4B",
"O. c #221F4C",
"+. c #211D4F",
"@. c #271D4F",
"#. c #231D4B",
"$. c #2E1B48",
"%. c #2A1D49",
"&. c #291D4B",
"*. c #2D1C48",
"=. c #2E1D49",
"-. c #2D1E49",
";. c #2E1E4B",
":. c #281A4D",
">. c #281F4C",
",. c #2B1D4C",
"<. c #3C1742",
"1. c #311D42",
"2. c #361C44",
"3. c #381D46",
"4. c #3A1E46",
"5. c #301F4B",
"6. c #341D49",
"7. c #301E4B",
"8. c #3E1F4B",
"9. c #3B1E4A",
"0. c #261E51",
"q. c #2A1E52",
"w. c #311E51",
"e. c #1E204B",
"r. c #2C2046",
"t. c #23204B",
"y. c #27214A",
"u. c #21204C",
"i. c #23204D",
"p. c #22214D",
"a. c #23204F",
"s. c #27204C",
"d. c #24214E",
"f. c #23214D",
"g. c #2B214C",
"h. c #322045",
"j. c #3C2144",
"k. c #3C2143",
"l. c #30214A",
"z. c #36214C",
"x. c #33214C",
"c. c #3B224C",
"v. c #3C254C",
"b. c #232150",
"n. c #252151",
"m. c #2B2152",
"M. c #352152",
"N. c #362253",
"B. c #332254",
"V. c #3A2252",
"C. c #392351",
"Z. c #392554",
"A. c #392854",
"S. c #352559",
"D. c #3A2359",
"F. c #431D43",
"G. c #442046",
"H. c #4B2245",
"J. c #45254C",
"K. c #43234B",
"L. c #4A2748",
"P. c #562142",
"I. c #5E2341",
"U. c #402353",
"Y. c #682948",
/* pixels */
"+.+.u n / 8.&...6.s 4 &.>.>.......~ z J.c.c.l.Q M : j.M V B M V M & ,.y.s.7.-.M M ; u -.^ &.x.-.{ 2 4.M.M.V.V.:.L y y.s.",
"G Z j b Z B B Z M s 3 M M M M B M I x ..{ { { { Z i ~ Z B V B M M o I B B B B B n r 5 Z Z Z B V n ; 4 b.u.p.s.@.n 2 Z B ",
", 3 s 4 b 5 b c , 8 ; 5 5 5 3 b b 4 z ' I b 3 , ; r u b b 5 3 5 3 o 4 b M b b b 4 : 3 n n n b , ; % 3 H H H n 4 ; > 6 n ",
"Q / E M n 1 O 4 4 5 4 3 3 O ; 4 5 4 4 6 5 ; ; n 6 5 6 6 b & ; I M 4 M Q M 5 o a 1._ ' ' I 4 & & 5 6 5 3 5 3 & o 1 3 6 4 ",
"Z Z Z Z B 6 ; Z Z Z Z Z B > 1 V Z Z Z Z Z 5 3 V Z B Z V V 3 > Z Z Z Z Z V M = -.p.p.p.p.p.+., 3 Z V Z V Z H 5 ; Z Z V V ",
"n m n b b u ; M M n M b 3 ; & n m n m b b 3 ; n n m b b 3 > & n n M b b b 3 @ J M M M M M n 3 ; n n n n b b 1 & b M m n ",
"; ; o > 3 2 2 3 3 > O > ; & & > ; & O > 3 3 3 4 4 ; & ; ; ; & ; ; & o & ; ; ; > > ; O @ u 3 2 > 3 3 3 ; # : 2 > 3 3 > & ",
"B M o M Z { { ^ { ~ & M Z M Z B B 6 o g.s.s.s.m.n.M & m M V M M M m o b M V Z M M M b @ x.{ ..+.{ p.{ 3 6 { Z Z Z Z Z > ",
"n m O M M M M M M J ; m M M B M M 3 o >.+.{ +.+.@.n ; M V V V M M 5 & b M V V V V Z b @ :.Z Z M V M M > 4 Z V V V V B 3 ",
"; & o & & o & % & # o & & & # > 1 ; O > ; & = 2 > > O 3 1 ; & > > ; % > > > & ; 1 3 ; o ; & & ; O > : # r 2 3 3 # ; ; & ",
"Z B M n ; ; n M M M n M n 5 $ / Z M M M n > d ' Z B M Z Z n & >...x.w.w.M.$.; 3 M M M M n n M b o l.g.g.g.g./ Q # m M M ",
"Z Z B B 3 3 B Z Z B V V B b = Z Z Z Z V M 3 f l.G Z Z Z B M & 0.0.Z.D.Z.B.,.; 3 Z B B Z Z V B n @ g.s.n.s.n.p.+.$ M V Z ",
"& ; & ; & O 1 3 3 > > > 3 & o > > * ; o o o q t 3 > & > ; ; o h u a g i 4 i @ o ; ; ; & & ; ; - . ; > > > > > ; $ > > ; ",
"Y.&.g.g.s.@.5.r 4 3.~ Z Q / / &._ o ~ ;.-.l.x.x.4.> > { ..&.m.M.5.n O 4./ ..&...{ Z b o M g.E M n M M 3 o 3 M M Q Z M M ",
"H.Z Z Z Z Z { 2 5 S V Z V H B Z M & b B M B Z B B < > b.p.@.p.p.+.b O n Z V V V V Z M O M B B V V B M n & b Z Z Z Z V V ",
"F.m b m b b K d 4 M M M M m M n n O 5 B B V Z V n 1 > m.m.>.>...K n : b M M M Z M M b O 5 M B M M Z B Q : n B Z M H M M ",
"1 2 o o : : : $ O O O   ; & ; & ; & & & o o & & O O O # #   q t y r ; ; & O . X o o o o o o o o   2 2 2 r 3 2 ; . ; ; ; ",
"Z ! : 4 >.s.p.{ { +.n o b M V V B Z B Z 3 ; M Z Z Z Z Z b   P.M M M H V M V ; > { 0.@.@.{ { Z 4 . x.m.m.m.m.@.! o n Z M ",
"V M # > M H Z M Z B n o n M B M M B M M ; ; H V B M M M b   a m n V M M M n ; > @.@.@.{ { Z H b o &.@.@.@.@.0.K O n M n ",
"; ; O o ; ; ; ; > > : # ; ; ; & ; 2 ; = # # 3 4 3 3 3 ; ; . ; ; & & ; & ; ; O # 4 3 3 3 ; 2 3 > @ : ; ; o o & % O ; ; & ",
"M M n n n n 5 o _ ..^ ^ Z Z n & > ] ^ / / / ] ' : 4 M Z Z Q M n ; 3 :.&.>.:.; n M M n 5 X L.r...g.l.g.n & 3 b b M Z Z M ",
"B Z V V V V M ; Q Z Z Z Z V M & > Z B S Z V V Z > b M V V H V V 3 n B.B.B.q.3 n V V B m o v.p.p.+.+.Z N > b V V Z Z Z B ",
"3 3 5 3 3 3 ; o 3 3 3 3 3 3 > O & 3 3 3 3 3 3 4 # > 3 5 3 3 3 > ; > I I n > ; 3 3 3 3 ; . _ n b b b 4 4 ; 3 3 3 3 3 3 3 ",
"n 6 4 # j n 4 6 6 6 6 & & 6 6 6 5 4 5 3 & 3 6 4 4 p 4 n ; : ' ' ~ I n 6 # 4 n 4 O 1 3 3 1 3 1 3 @ l u 4 3 5 3 3 o ; 3 u ",
"G Z M > H.{ { Z Z e.Z > ; Z Z Z Z Z Z H ; M V B Z Z Z Z 3 e ..{ { { { Z 4 7.g.>.# n V V M V M m $ I.Z Z Z Z Z M . M Z Z ",
"m n 5 ; F.+.V M H H M : ; M M n M n b b & b M M M M M m ; w M V M M b , w 4.0.;.# b M M M n b 3 # P.M M M M M M o H H V ",
"& & ; ; ; ; & o o % & & ; & & & & . ; ; ; ; : 2 > o 9 2 > > > ; o % O & o # > : ; r t s . i 3 > # ; & & # $ ; # # ; ; ; ",
"M V V B M M M ; > M M V M M M B n ; { Z Z Z Z Z Z ; F.{ e.u.e.V ; b M M n : ! m.m.g.m.-.+ h.Z Z Z B B n w j Z Z Z Z Z M ",
"V Z Z Z G V Z > 3 V V Z V V B M m ; G Z Z e.Z Z Z e 9.p.p.+.Z M ; 6 V Z M > M +.q.m.m.$.. +.Z Z Z H V b w ' Z Z Z G Z V ",
"o o o & & ; ; o O ; & & & O ; & o   o o o o o = # # @ o o o % o o o o & o   X o o o o @ . o & & o o o @ . O O & o o o o ",
"x.>.# M { { u.u.+.M ; ;.B.B.B.S...3 { V Z n 2 j.g.m.m.m.q.> ; { u.{ { Q ; b B Z Z 5 -.A.Z.S.@.; ; @.l.J.l.s.{ O n { s.g.",
"p.H o b V Z Z V V n & w.B.B.B.B.B.2 M M B M : ] +.+.s.n.m.> > M B Z B M ; b M M M 5 4.m.m.m.+.; & M B M V V n O Z Z Z { ",
"b > o ; > 3 > 3 5 4 # 4 I :.~ K :.> 5 3 3 3 ; ; ; > , v 4 ; ; 3 4 5 b 4 ; 3 3 3 3 ; i v 4 4 , = o 3 3 > > > > # J M b b ",
"5 3 3 3 3 3 o 4 M 4 M ~ 6 p @ n I M 6 3 o 3 3 3 o I h.j ' p 4 % i ~ I M n n ; & 5 5 5 5 1 O 3 3 3 3 3 o 2 M I _ ' M b o ",
"B Z Z Z M M & b V V Z Z H ..0 B.B.B.m.Q & B B m ; H Z Z +.+.+.1 J V Z Z Z Z b 3 M Z Z Z M ; V V V V M ; b Z Z Z Z Z V O ",
"b m m m m 5 & 3 n b b m M p 7 :.>.&.:.4 ; b m 5 & M M M m m n ; 3 M M b b 5 ; > n M n M M O n m b m b ; 5 b m n b b b O ",
"3 2 O 2 > > : 4 4 ; o ; ; ; ; ; ; ; o ; ; ; 1 ; & & ; > : o ; ; ; > ; ; & o & 2 3 3 3 O h y i ; # 3 3 2 3 3 ; o > 2 r : ",
"u./ # ^ Z Z { @.^ I ; M B M M M m 3 : M Z Z Z Z Z 5 2.g.g.; M Z Z ! M M m ; b Z Z Z Z # V.B.B.I g { Z Z Z Z 5 & M { ..^ ",
"V n $ M M M M M M <.> M V M M M M 5 e Z Z M M M m > F.m.g.; V V V Z M V M ; 5 n M b b o $.@.m.J k ^ V M M M 3 & M Z V M ",
"& ; # ; ; & ; > > w $ 3 4 2 : 2 3 ; # 3 2 # ; ; & % 7 : 3 # ; 1 3 > ; 2 2 ; ; ; & O o o ; > 2 : 7 ; & ; ; : = $ 2 2 ; & ",
"M M M M n 3 ; n M M I M Z 6 g M Z Z Z I I : ! ;.w.;.4 & n n M M M b $ ] Q ! Z M M 3 3 M M M Z M M M n ; f &.^ ^ / { Z ; ",
"V V V V V 5 ; V Z Z V V V 3 e Z Z Z Z V m > :.B.B.m.n & M V Z V B 6 $ ^ Z Z V Z Z 3 3 Z Z V Z Z Z B Z u h ..Z u.{ e.Z ; ",
"& > ; * & & o ; > & ; ; > > @ ; ; ; % o o o > 4 4 3 ; o > 3 3 3 ; = O 3 3 3 > & & O o ; ; > ; 3 > 3 ; $ $ ; > > > > > ; ",
"b 5 o n M Q ~ &.7.a ; b n Q / n   6 6 4 n n b & 3 n 6 6 b 5 & h r.E / / ] ] # u I M ] ] n n 3 O Q ^ / / / ..> & 3 5 5 6 ",
"Z M o { b.u.e.Z { y n m.m.m.m.Q X Z Z G G e.M & n Z V Z V B ; n Z Z Z Z Z Z ; 6 V V Z B B M 3 % Z Z Z Z Z V 3 3 B Z M B ",
"V Z O Z +.H H M N i n q.m.m.q.K o Z Z Z Z M m ; b M Z Z M n ; b Z Z M m b n = b H H M M M m ; = Z Z Z V H M 3 3 M B V M ",
"; ; ; O o 2 ; ; # O O o ; ; ; = o O o o O o # # ; ; o ; ; & O & & o o ; ; ; ; 2 r o O : O O O O & o ; 4 3 ; ; ; : ; o ; ",
"Z Z V n & Z Z Z Z Z m & M Z Z B Z Z > 3 Z Z Z ^ { M & Z Z Z Z Z Z 5 ; Z Z Z +.{ { 4 3 Q V V V V Z 3 ; M Z Z Z { { n 1 M ",
"M M m 5 & M M V M M b & M M M M B M 3 > V M M M M m o M M M M B M 5 ; Z Z Z Z V B 4 3 M M M M M m 3 & M Z B B B B 5 ; M ",
"; ; ; o % & ; ; ; > > ; 3 3 4 3 ; 3 ; & 3 ; ; ; ; > # 4 4 ; ; & ; & & 3 ; 2 u u 4 : ; 3 ; ; ; ; ; ; & 3 3 3 ; ; 3 : : 4 ",
"! ..M o 5 n n m 3 a x.x.5.{ z.: 1 ~ H.^ Z M ; Q ..z.l.r.z.w 3 n m n n n 3 s H.K.g...@...> & Q Z Z M M M M n 3 o &.z.z.x.",
"m.m.m.# M V V B 5 i g.n.n.n.+.; 6 G G G V Q , H u.p.n.n.0.; b V V B V V b s 5.+.p.+.+.p., & Z V V Z Z V B Z 3 % @.q.m.m.",
"~ ] ~ @ 5 6 b b 3 : 4 b 4 b > - 2 b b b 5 4 : 4 b b n n 4 o 3 5 3 5 5 b 3 w u 3 3 3 3 4 = o 5 3 5 5 3 3 3 3 ; o b K J K ",
"3 4 4 4 4 ; o & ; & ; & o > 3 3 3 > O t 4 4 4 6 6 4 o & ; ; ; ; 3 ; O 4 4 > > 3 ; o & , 3 3 3 O ; 3 3 1 # : > ; 3 3 3 ; ",
"m.m.g.>.s.b % b M M M B & M B V Z M ; G.Z Z Z Z Z Z O b M V V V M n O Z Z Z Z Z V ; b Z Z Z V ; 5 Z V B u 2.V B V Z Z 3 ",
"m.m.m.m.0.b ; b M V M M O H V V V M ; G.Z Z M V M M & m Z M V Z V b O H V V V V Z 2 M V Z Z H ; n V B M u k.Z Z Z M M 3 ",
"; = ; # = ; o O O o O ; O ; ; & ; ; # $ ; O o o & % O # 2 ; ; > 2 ; O # O O & ; : $ : ; O # # O O O O O @ # ; o O O o o ",
"M n 5 0 x.@.@.>.@.4 3 M M M n & 6 M M M M b ; ! B.B.m.m.g.> 4 Z Z M Z M b ; M Z / Z ..M ; 2.Z Z Z n 4 M Z Z M ; n M M M ",
"M Z 5 w x.s.m.m.>.L 6 B B M B & 3 V B B Z M ; :.m.m.m.m.:., > Z V Z V M 3 ; M Z Z Z Z Z ; H.Z Z G n 6 M Z Z V ; I Z B M ",
"3 > & $ ~ Q ~ 7.] u > 3 > 3 ; . % ; ; 3 ; & o , 4 u u > ; O o ; ; 1 3 ; & o > 3 3 u i e . d ; ; ; % ; 3 3 3 ; X > 3 3 3 "
};
